<svg xmlns="http://www.w3.org/2000/svg" xmlns:xlink="http://www.w3.org/1999/xlink" viewBox="41.5 87 444 444"><defs><style> .cls-1 { fill: url(#Dégradé_sans_nom_57); } .cls-1, .cls-2, .cls-3, .cls-4, .cls-5, .cls-6, .cls-7, .cls-8, .cls-9, .cls-10 { stroke-miterlimit: 10; } .cls-1, .cls-4, .cls-5, .cls-9 { stroke: #6a3352; } .cls-11 { fill: url(#Dégradé_sans_nom_181-2); } .cls-12 { fill: url(#Dégradé_sans_nom_448); } .cls-13 { fill: url(#Dégradé_sans_nom_377); } .cls-14 { fill: #89cbbf; } .cls-15 { fill: url(#Dégradé_sans_nom_275); } .cls-16 { fill: #83cac3; } .cls-2 { fill: url(#Dégradé_sans_nom_464); stroke: url(#Dégradé_sans_nom_133); } .cls-2, .cls-5, .cls-10 { stroke-width: .25px; } .cls-17 { fill: url(#Dégradé_sans_nom_181-3); } .cls-18 { fill: url(#Dégradé_sans_nom_26); } .cls-19 { fill: url(#Dégradé_sans_nom_181); } .cls-20, .cls-6 { fill: #0b5468; } .cls-21 { fill: url(#Dégradé_sans_nom_152); } .cls-3 { fill: url(#Dégradé_sans_nom_11); stroke: #dc3f55; } .cls-22 { fill: url(#Dégradé_sans_nom_93); } .cls-23 { fill: url(#Dégradé_sans_nom_80); } .cls-4 { fill: #060408; } .cls-5 { fill: url(#Dégradé_sans_nom_293); } .cls-6 { stroke: #12301b; stroke-width: .5px; } .cls-24 { fill: url(#Dégradé_sans_nom_416); } .cls-25 { fill: url(#Dégradé_sans_nom_23); } .cls-26 { fill: url(#Dégradé_sans_nom_406); } .cls-7 { fill: url(#Dégradé_sans_nom_439); stroke: #105d69; stroke-width: .75px; } .cls-8 { fill: none; stroke: url(#Dégradé_sans_nom_197); stroke-width: 8px; } .cls-27 { fill: #e06b8b; } .cls-28 { fill: url(#Dégradé_sans_nom_266); } .cls-9 { fill: #9e1858; stroke-width: 2px; } .cls-29 { fill: url(#Dégradé_sans_nom_245); } .cls-30 { fill: #f6f5f5; } .cls-31 { fill: #060707; } .cls-10 { fill: #fef4f3; stroke: #1d1d1b; } .cls-32 { fill: url(#Dégradé_sans_nom_339); } .cls-33 { fill: url(#Dégradé_sans_nom_771); } .cls-34 { fill: url(#Dégradé_sans_nom_30); } .cls-35 { fill: url(#Dégradé_sans_nom_232); } </style><linearGradient id="Dégradé_sans_nom_26" data-name="Dégradé sans nom 26" x1="196.03" y1="186.31" x2="246.47" y2="186.31" gradientTransform="translate(122.39 -94.91) rotate(30.77) scale(1.01 1.02) skewX(1.55)" gradientUnits="userSpaceOnUse"><stop offset="0" stop-color="#e52a1d"/><stop offset="0" stop-color="#e52f23"/><stop offset=".02" stop-color="#ea554b"/><stop offset=".04" stop-color="#ee726a"/><stop offset=".06" stop-color="#f08780"/><stop offset=".07" stop-color="#f2948e"/><stop offset=".09" stop-color="#f39993"/><stop offset="1" stop-color="#f39a93"/></linearGradient><linearGradient id="Dégradé_sans_nom_93" data-name="Dégradé sans nom 93" x1="124.18" y1="200.95" x2="229.2" y2="200.95" gradientTransform="translate(189.05 -66.35) rotate(43.97)" gradientUnits="userSpaceOnUse"><stop offset="0" stop-color="#eb5e57"/><stop offset=".39" stop-color="#eb5f57"/><stop offset=".53" stop-color="#ec665a"/><stop offset=".63" stop-color="#ed725f"/><stop offset=".71" stop-color="#f08367"/><stop offset=".77" stop-color="#f39870"/></linearGradient><linearGradient id="Dégradé_sans_nom_80" data-name="Dégradé sans nom 80" x1="207.58" y1="466.89" x2="355.05" y2="252.18" gradientUnits="userSpaceOnUse"><stop offset=".08" stop-color="#105d69"/><stop offset=".52" stop-color="#406165" stop-opacity=".6"/><stop offset=".59" stop-color="#716c63" stop-opacity=".72"/><stop offset=".71" stop-color="#c27e60" stop-opacity=".92"/><stop offset=".76" stop-color="#e3865f"/><stop offset=".88" stop-color="#f1885d"/><stop offset="1" stop-color="#e94e1b" stop-opacity=".5"/><stop offset="1" stop-color="#e94e1b"/></linearGradient><linearGradient id="Dégradé_sans_nom_771" data-name="Dégradé sans nom 771" x1="153.27" y1="268.82" x2="384.53" y2="333.45" gradientUnits="userSpaceOnUse"><stop offset="0" stop-color="#e6332a" stop-opacity=".9"/><stop offset=".05" stop-color="#e6372c" stop-opacity=".9"/><stop offset=".1" stop-color="#e84535" stop-opacity=".92"/><stop offset=".16" stop-color="#eb5b43" stop-opacity=".94"/><stop offset=".22" stop-color="#ef7b57" stop-opacity=".96"/><stop offset=".28" stop-color="#f4a370" stop-opacity="1"/><stop offset=".28" stop-color="#f5a571"/></linearGradient><linearGradient id="Dégradé_sans_nom_245" data-name="Dégradé sans nom 245" x1="234.38" y1="52.61" x2="363.81" y2="210.54" gradientUnits="userSpaceOnUse"><stop offset="0" stop-color="#e94e1b"/><stop offset=".28" stop-color="#f09064"/><stop offset=".79" stop-color="#f9cbaa"/></linearGradient><linearGradient id="Dégradé_sans_nom_377" data-name="Dégradé sans nom 377" x1="107.31" y1="309.87" x2="421.96" y2="309.87" gradientUnits="userSpaceOnUse"><stop offset="0" stop-color="#f08178"/><stop offset=".35" stop-color="#e16488"/><stop offset=".99" stop-color="#bf4b95"/></linearGradient><linearGradient id="Dégradé_sans_nom_197" data-name="Dégradé sans nom 197" x1="383.41" y1="355.33" x2="212.26" y2="355.33" gradientUnits="userSpaceOnUse"><stop offset=".05" stop-color="#15aaa8"/><stop offset=".15" stop-color="#149a9b"/><stop offset=".34" stop-color="#127f85"/><stop offset=".54" stop-color="#116c75"/><stop offset=".75" stop-color="#10606c"/><stop offset=".96" stop-color="#105d69"/></linearGradient><linearGradient id="Dégradé_sans_nom_275" data-name="Dégradé sans nom 275" x1="291.26" y1="319.97" x2="348.15" y2="319.97" gradientUnits="userSpaceOnUse"><stop offset=".5" stop-color="#f39200"/><stop offset=".59" stop-color="#ee700e"/><stop offset=".68" stop-color="#ea551a"/><stop offset=".77" stop-color="#e84223"/><stop offset=".86" stop-color="#e63628"/><stop offset=".96" stop-color="#e6332a"/></linearGradient><linearGradient id="Dégradé_sans_nom_232" data-name="Dégradé sans nom 232" x1="339.58" y1="330.77" x2="340.1" y2="380.55" gradientUnits="userSpaceOnUse"><stop offset=".39" stop-color="#f39200"/><stop offset=".49" stop-color="#ee700e"/><stop offset=".61" stop-color="#ea551a"/><stop offset=".72" stop-color="#e84223"/><stop offset=".84" stop-color="#e63628"/><stop offset=".96" stop-color="#e6332a"/></linearGradient><linearGradient id="Dégradé_sans_nom_266" data-name="Dégradé sans nom 266" x1="359.18" y1="399.24" x2="287.72" y2="399.24" gradientUnits="userSpaceOnUse"><stop offset=".39" stop-color="#f39200"/><stop offset=".49" stop-color="#ee700e"/><stop offset=".61" stop-color="#ea551a"/><stop offset=".72" stop-color="#e84223"/><stop offset=".84" stop-color="#e63628"/><stop offset=".96" stop-color="#e6332a"/></linearGradient><linearGradient id="Dégradé_sans_nom_181" data-name="Dégradé sans nom 181" x1="288.51" y1="430.54" x2="251.53" y2="366.49" gradientUnits="userSpaceOnUse"><stop offset=".39" stop-color="#15aaa8"/><stop offset=".44" stop-color="#149a9b"/><stop offset=".57" stop-color="#127f85"/><stop offset=".7" stop-color="#116c75"/><stop offset=".83" stop-color="#10606c"/><stop offset=".96" stop-color="#105d69"/></linearGradient><linearGradient id="Dégradé_sans_nom_181-2" data-name="Dégradé sans nom 181" x1="255.18" y1="394.01" x2="255.18" y2="331.71" xlink:href="#Dégradé_sans_nom_181"/><linearGradient id="Dégradé_sans_nom_181-3" data-name="Dégradé sans nom 181" x1="236.15" y1="310.58" x2="309.29" y2="310.58" xlink:href="#Dégradé_sans_nom_181"/><linearGradient id="Dégradé_sans_nom_339" data-name="Dégradé sans nom 339" x1="300.01" y1="127.61" x2="348.4" y2="212.68" gradientUnits="userSpaceOnUse"><stop offset=".06" stop-color="#cb2b4a"/><stop offset=".39" stop-color="#e95023"/><stop offset=".67" stop-color="#e8451f"/><stop offset="1" stop-color="#f09064"/></linearGradient><linearGradient id="Dégradé_sans_nom_23" data-name="Dégradé sans nom 23" x1="199.52" y1="171.25" x2="278.57" y2="171.25" gradientUnits="userSpaceOnUse"><stop offset="0" stop-color="#e52a1d"/><stop offset=".06" stop-color="#e63629"/><stop offset=".25" stop-color="#ea594f"/><stop offset=".45" stop-color="#ee756d"/><stop offset=".64" stop-color="#f08982"/><stop offset=".82" stop-color="#f2958e"/><stop offset="1" stop-color="#f39a93"/></linearGradient><linearGradient id="Dégradé_sans_nom_416" data-name="Dégradé sans nom 416" x1="226.45" y1="186.99" x2="361.31" y2="186.99" gradientUnits="userSpaceOnUse"><stop offset="0" stop-color="#1f4959"/><stop offset=".37" stop-color="#105d69"/><stop offset=".78" stop-color="#00a19a"/><stop offset="1" stop-color="#95d0ca"/></linearGradient><linearGradient id="Dégradé_sans_nom_406" data-name="Dégradé sans nom 406" x1="252.73" y1="181.92" x2="361.74" y2="181.92" gradientUnits="userSpaceOnUse"><stop offset="0" stop-color="#105d69"/><stop offset=".21" stop-color="#00a19a"/><stop offset="1" stop-color="#95d0ca"/></linearGradient><linearGradient id="Dégradé_sans_nom_464" data-name="Dégradé sans nom 464" x1="128.19" y1="266.92" x2="211" y2="266.92" gradientUnits="userSpaceOnUse"><stop offset="0" stop-color="#0e9d9f"/><stop offset=".32" stop-color="#0e7d86"/><stop offset=".93" stop-color="#119094"/></linearGradient><linearGradient id="Dégradé_sans_nom_133" data-name="Dégradé sans nom 133" x1="128.07" y1="266.94" x2="211.12" y2="266.94" gradientUnits="userSpaceOnUse"><stop offset="0" stop-color="#0e9d9f"/><stop offset=".32" stop-color="#0e7d86"/><stop offset=".93" stop-color="#119094"/></linearGradient><linearGradient id="Dégradé_sans_nom_439" data-name="Dégradé sans nom 439" x1="199.56" y1="214.68" x2="283.27" y2="214.68" gradientTransform="translate(-10 .51) scale(1.05 1)" gradientUnits="userSpaceOnUse"><stop offset="0" stop-color="#179c9f"/><stop offset="1" stop-color="#38a29d"/></linearGradient><linearGradient id="Dégradé_sans_nom_448" data-name="Dégradé sans nom 448" x1="203.68" y1="183.25" x2="263.93" y2="183.25" gradientUnits="userSpaceOnUse"><stop offset="0" stop-color="#ed6a57"/><stop offset="1" stop-color="#f4a078"/></linearGradient><linearGradient id="Dégradé_sans_nom_293" data-name="Dégradé sans nom 293" x1="207.71" y1="432.29" x2="423.83" y2="432.29" gradientUnits="userSpaceOnUse"><stop offset="0" stop-color="#105d69"/><stop offset="1" stop-color="#00a19a"/></linearGradient><linearGradient id="Dégradé_sans_nom_11" data-name="Dégradé sans nom 11" x1="315.24" y1="137.2" x2="329.53" y2="155.57" gradientUnits="userSpaceOnUse"><stop offset="0" stop-color="#d95386"/><stop offset="1" stop-color="#d8413a"/></linearGradient><linearGradient id="Dégradé_sans_nom_30" data-name="Dégradé sans nom 30" x1="396.87" y1="518.22" x2="154.66" y2="164.15" gradientUnits="userSpaceOnUse"><stop offset="0" stop-color="#1a636f"/><stop offset="0" stop-color="#2c747c"/><stop offset=".02" stop-color="#468e8f"/><stop offset=".04" stop-color="#5ca39f"/><stop offset=".06" stop-color="#6db4ac"/><stop offset=".08" stop-color="#79bfb4"/><stop offset=".11" stop-color="#80c6b9"/><stop offset=".2" stop-color="#82c8bb"/><stop offset=".26" stop-color="#a9a798"/><stop offset=".35" stop-color="#da7e6c"/><stop offset=".4" stop-color="#ee6f5c"/><stop offset=".7" stop-color="#ed6d5a"/><stop offset=".75" stop-color="#e84d2f"/><stop offset=".78" stop-color="#e7401c"/><stop offset=".78" stop-color="#e7411d"/><stop offset=".81" stop-color="#e8431f"/><stop offset=".84" stop-color="#dc3a28"/><stop offset=".89" stop-color="#bf2342"/><stop offset=".92" stop-color="#aa1355"/></linearGradient><linearGradient id="Dégradé_sans_nom_57" data-name="Dégradé sans nom 57" x1="241.68" y1="150.97" x2="271.92" y2="474.82" gradientUnits="userSpaceOnUse"><stop offset="0" stop-color="#b01356"/><stop offset=".22" stop-color="#bb2e5b"/><stop offset=".7" stop-color="#d97568"/><stop offset="1" stop-color="#eda671"/></linearGradient><linearGradient id="Dégradé_sans_nom_152" data-name="Dégradé sans nom 152" x1="140.96" y1="303.3" x2="344.25" y2="496.31" gradientUnits="userSpaceOnUse"><stop offset="0" stop-color="#105d69"/><stop offset="0" stop-color="#125f6a"/><stop offset=".05" stop-color="#327b7f"/><stop offset=".1" stop-color="#4c9491"/><stop offset=".16" stop-color="#62a8a0"/><stop offset=".22" stop-color="#73b7ab"/><stop offset=".31" stop-color="#7fc2b3"/><stop offset=".42" stop-color="#86c8b7"/><stop offset=".75" stop-color="#88cab9"/><stop offset=".76" stop-color="#98bca2"/><stop offset=".77" stop-color="#b2a57d"/><stop offset=".79" stop-color="#c59562"/><stop offset=".8" stop-color="#d08b52"/><stop offset=".81" stop-color="#d5884d"/><stop offset=".84" stop-color="#d68449"/><stop offset=".9" stop-color="#d98045"/><stop offset=".93" stop-color="#df6b33" stop-opacity=".96"/><stop offset=".95" stop-color="#e45a25" stop-opacity=".93"/><stop offset=".97" stop-color="#e7511d" stop-opacity=".91"/><stop offset="1" stop-color="#e94e1b" stop-opacity=".9"/><stop offset="1" stop-color="#e94e1b" stop-opacity=".5"/></linearGradient></defs><g id="Calque_13" data-name="Calque 13"><path class="cls-14" d="M202.57,216.7c2.48,6.73-11.31,16.05-16.19,14.73-29.73-8.05,1.04-55.9,16.19-14.73Z"/></g><g id="Calque_12" data-name="Calque 12"><ellipse class="cls-18" cx="220.93" cy="185.79" rx="27.06" ry="19.31" transform="translate(-63.3 135.36) rotate(-30)"/><ellipse class="cls-22" cx="176.69" cy="200.95" rx="70.75" ry="18.42" transform="translate(-89.99 179) rotate(-43.97)"/></g><g id="C"><path class="cls-23" d="M414.82,315.22c-1.13.75-2.48,1.48-3.93,2.15,0,.01-.03.01-.04.02-4.38,2.03-9.58,3.54-12.22,3.54-4.99,0-9.65-1.43-13.66-3.93-2.56-1.59-4.84-3.62-6.77-5.99,0-.01,0-.01,0-.01-1.22-2.19-2.54-4.33-3.95-6.4,0-.01-.01-.02-.01-.03-16.45-24.33-44.42-40.34-76.16-40.34-2.39,0-4.76.09-7.1.27h-.01c-47.29,3.6-84.52,42.81-84.52,90.65,0,5.21.44,10.33,1.3,15.3h0c-.02.79-.03,1.56-.03,2.35,0,37.91,22.53,71.9,58.13,94.88,8.81,5.69,18.42,10.7,28.69,14.93,12.06,4.98,25.03,8.88,38.68,11.52-11.01,2.62-22.5,4.01-34.33,4.01-42.8,0-81.29-18.18-107.92-47.11-19.6-21.3-32.78-48.44-36.51-78.44,0-.01,0-.02,0-.04,0,0,0-.08-.01-.22,0-.09-.01-.18-.01-.27-.01-.22-.01-.43-.02-.65,0-.19-.01-.39-.01-.58,0-.69-.02-1.39-.02-2.09,0-1.06.02-2.11.05-3.14.01-.42.03-.83.05-1.24.02-.34.03-.67.05-1.01.24-4.36.72-8.36,1.15-11.32.03-.2.06-.39.09-.58.04-.21.07-.42.1-.62.04-.21.07-.42.1-.62.04-.23.07-.45.11-.66.08-.47.16-.89.22-1.25.13-.69.22-1.15.25-1.33.01-.03.02-.06.02-.09,1.38-6.85,4.5-21.53,14.87-36.96.39-.58.77-1.15,1.12-1.71.16-.24.32-.49.47-.73,2.34-3.6,4.24-6.75,5.89-8.87,2.97-3.7,5.92-7.02,8.79-10.01.7-.73,1.39-1.44,2.08-2.12,4.84-4.78,9.46-8.48,13.1-11.66,7.36-6.45,17.81-14.63,36.99-22.78.03-.01.07-.02.1-.04,8.69-3.69,19.18-7.37,31.97-10.88.19-.05.38-.08.56-.11,0,0,10.61-2.28,20.01-2.42.31-.01.61-.01.91-.01,1.01,0,2.06.02,2.06.02.72.01,1.43.04,2.14.06.59.02,1.18.05,1.76.08.61.03,1.21.07,1.81.1,1.74.1,3.5.22,5.25.36.61.05,1.22.1,1.83.16,11.38,1.01,22.74,2.97,32.75,6.98.17.07.31.12.42.16.22.09.33.13.33.13.01.01.03.01.04.02,6.86,2.64,11.74,5.38,14.79,7.12,11.69,6.65,19.44,13.63,22.84,16.9.16.15.3.29.44.42.18.17.32.31.42.41l.42.42c17.12,17.46,23.88,41.9,34.1,43.3Z"/><path class="cls-33" d="M425.8,292.33c0,9.36-4.24,17.67-10.79,22.89-10.22-1.4-16.98-25.84-34.1-43.3l-.42-.42c-.1-.1-.24-.24-.42-.41-.14-.13-.28-.27-.44-.42-3.4-3.27-11.15-10.25-22.84-16.9-3.05-1.74-7.93-4.48-14.79-7.12-.01,0-.03,0-.04-.02,0,0-.11-.04-.33-.13-.14-.06-.28-.12-.42-.16-10.01-4.01-21.37-5.97-32.75-6.98-.61-.06-1.22-.11-1.83-.16-1.75-.14-3.51-.26-5.25-.36-.6-.03-1.2-.07-1.81-.1-.58-.03-1.17-.06-1.76-.08-.71-.02-1.42-.05-2.14-.06,0,0-1.05-.02-2.06-.02-.3,0-.6,0-.91.01-9.4.14-20.01,2.42-20.01,2.42-.18.03-.37.06-.56.11-7.72,1.51-21.26,6.12-31.97,10.88-.03.02-.07.03-.1.04-19.18,8.15-29.63,16.33-36.99,22.78-3.81,2.99-8.31,6.84-13.1,11.66-.69.68-1.38,1.39-2.08,2.12-2.87,2.99-5.82,6.31-8.79,10.01-1.8,2-3.6,5.23-5.89,8.87-.15.24-.31.49-.47.73-.35.56-.73,1.13-1.12,1.71-10.37,15.43-13.49,30.11-14.87,36.96,0,.03-.01.06-.02.09-.03.18-.12.64-.25,1.33-.06.36-.14.78-.22,1.25-.04.21-.07.43-.11.66-.03.2-.06.41-.1.62-.03.2-.06.41-.1.62-.03.19-.06.38-.09.58-.59,3.71-.98,7.48-1.15,11.32-.02.34-.03.67-.05,1.01-.02.41-.04.82-.05,1.24-.03,1.03-.05,2.08-.05,3.14-.02.28,0,1.22.02,2.09,0,.19.01.39.01.58.01.22.01.43.02.65,0,.09.01.18.01.27.01.14.01.22.01.22-.71-5.74-1.08-11.59-1.08-17.52,0-79.04,65.15-143.11,145.52-143.11,37.3,0,71.31,13.8,97.06,36.48,7.77,6.84,14.79,14.5,20.91,22.84,2.12,2.87,4.13,5.82,6.02,8.85.16.24.31.48.46.72h0c1.47,3.53,2.28,7.43,2.28,11.52Z"/></g><g id="Calque_9" data-name="Calque 9"><g><path class="cls-29" d="M369.38,162.37s-2.03,3.08-2.03,3.08c-1.78,2.43-1.89,2.46-2.29,2.94-1.39,1.57-2.28,2.17-2.28,2.17-2.46,1.73-3.19,4.73-4.83,8.48-.09.21-.73,1.07-1.21,1.11-1.13.11-2.14-2.39-2.24-2.29l2.48-3.83s0,0,0-.01c0-.02,1.13-2.14,2.03-4,.03-.02.79-1.73,1.86-4.51.16-.41.94-1.86.78-2.11-.07-.11-.33-.32-.65-.32-.87,0-4.7,1.16-4.87,1.22-1.33.48-4.16,1.15-4.89,1.35-3.25.87-7.25,1.91-12.11,3.16-7.75,1.98-26.57,6.3-27.81,6.86-2.7,1.22-7.01,2.75-8.89,3.79-9.43,5.24-19.29,6.54-24.47-3.73-.56-1.11-4.12-7.85-4.06-7.73.08.18-3.83-10.02-3.83-10.02,1.06,1.7,4.67,6.76,7.08,10.06.96,1.32,2.71,2.5,4.95,3.68,4.24,2.24,8.35,2.3,10.12,2.2,5.05-.29,9.59-2.7,13.63-6.26,13.52-1.73,23.51-4.45,24.13-4.57.85-.17,14.96-4.7,19.05-6.22,2.48-.92,5.93-1.28,6.94-1.08.84.11,2.19.29,3.03.4h3.61c.03-.1.06-.21.09-.31.02-.06.03-.11.04-.16.11-.41.19-.82.24-1.22,1.25-9.52-11.86-16.88-19.77-23.56l-8.81-7.43c-4.8-4.05-8.81-5.31-12.36-5.63h-.03c-2.79-.25-5.3.09-7.69.11-1.53.01-3.01-.1-4.48-.58-6.67-2.15-15.57-12.05-33.96-17.27-3.19-.91-7.77-1.79-12.19-2.1h-.04c-5.31-.36-10.4.12-12.53,2.43h-.01c-.11.12-.19.22-.28.34-.17.23-.31.46-.42.7-.13.26-.23.53-.3.8-.33,1.19-.16,2.47.22,3.69,2.13,6.77,5.52,14.51,5.75,21.28,0,.01-.69,4.42-.79,4.6-.79,1.46-1.37,1.94-2.48,2.19,0,0-2.13,1.14-5.35-1.07-4.23-2.91-11.18-4.72-10.97-5.66,0-.02,10.29,1.65,12.57,1.42.49-.05.93-.28,1.01-.76.1-.62.2-1.44.19-1.97-.02-.85-.09-1.54-.09-1.54l-.89-4.51c-.67-2.63-.82-3.16-1.71-5.87-1.82-5.53-2.48-10.4-2.22-12.38.51-3.98,3.44-6.51,6.95-8.16,1.07-.51,2.86-1.17,7.97-1.46,5.62-.31,9.27-.35,14.6.79,1.7.36,5.41,1.02,10.79,3.11,4.45,1.72,9.08,4.25,14.19,6.73,3.94,1.91,7.86,5.59,11.78,7.75.27.15,1.75,1.09,2.89,1.3,1.19.21,2.92-.01,3.24,0,3.49.16,5.32-.04,8.54.25,2.75.25,7.33,1.71,11.98,4.79.98.65,2.25,1.86,3.13,2.51.69.51,1.75,1.45,2.38,2,6.56,5.67,8.97,7.73,16.01,13.58,1.1.92,9.38,7.38,11.1,14.96.92,4.07.25,8.54-1.52,12.48Z"/><path class="cls-4" d="M362.41,157.87c1.11.18,2.35.7,2.29,1.14-.02.13-.46.04-.59.02-1.35-.25-2.98-.04-6.21.35-1.13.14-2.77.62-6.05,1.57-1.43.42-2.61.76-4.12,1.29-2.48.86-3.67,1.46-5.24,2.1-3.76,1.53-6.91,2.2-11.4,3.14-2.6.55-5.28,1-5.74,1.07-.75.12-1.96.32-3.31.52-1.02.15-1.71.25-2.1.31-3.74.54-5.62.82-7.64,1.33-.48.12-2.18.57-4.31,1.4-1.63.64-2.22,1-6.67,3.12-2.44,1.16-2.8,1.31-3.19,1.45-1.95.73-3.38,1.27-5.29,1.31-2.64.05-3.66-.3-6.58-1.1-.52-.14-2.51-1.31-2.97-1.92-.49-.66-1.78-1.58-1.71-1.67.26-.33,5.65,2.49,9.76,2.9.64.06,2.44.24,4.31-.43.48-.17,1.27-.51,1.93-.79.47-.2,1.29-.55,2.1-.93,1.3-.62,2.12-1.11,2.7-1.43,1.44-.81,2.58-1.22,4.75-2.02,1.28-.47,5.42-1.93,11.6-2.93,2.64-.43,2.24-.22,5.17-.69,3.67-.59,6.37-1.25,9.19-1.95,4.4-1.09,6.6-1.63,9.1-2.55,2.96-1.08,4.1-1.77,7.95-3.02.6-.19,1.23-.49,2.16-.71.58-.14,1.2-.31,2.41-.59,2.53-.6,3.6-.77,5.79-.48.33.04,1.38.1,1.9.19Z"/></g></g><g id="objectif"><g id="Objet_génératif" data-name="Objet génératif"><path class="cls-13" d="M347.13,131.35l-13.43-11.24c-6.1-4.24-15.88-3.33-17.95-3.1-1.52.01-3.84-.61-5.24-1.24-5.19-2.31-9.79-6.85-18.33-11.14-5.21-2.63-9.31-4.12-13.96-5.33-8.04-2.1-14.97-2.29-19.67-2.1-.85,0-3.43.31-5.14,1.16-2.31,1.15-2.9,2.93-3.3,3.96-.81,2.11.55,5.4,1.06,7.03.72,2.26,1.6,3.34,2.62,6.71.57,1.88.83,3.34,1,4.29.87,5.89,1.79,10.4-.52,12.95-.61.67-1.57,1.16-5.62,1.48-3.22.25-7.83.32-13.48-.57-5.9-.23-14.06-.04-23.52,1.86-18.64,3.73-31.31,11.86-38,16.24-4.85,3.17-18.74,12.78-31.48,30.05-2.38,3.23-8.26,12.48-15.43,24.52-19.62,32.95-19.43,85.76-19.43,85.76-.16,23.31,2.67,43.76,5.52,56.38,3.97,17.55,10.26,48.25,31.62,80.95,3.96,6.06,13.94,20.64,30.1,36.38,14.4,14.03,26.45,23.16,33.71,27.76,12.38,6.86,33.52,16.57,45.36,20.37,38.58,12.39,65.12,7.06,75.21,6.48.37-.02,42.66-6.26,60.57-17.35,7.05-4.37,16.4-10.18,24.89-21.21,5.27-6.85,8.45-39.26,7.49-41.27-2.99-6.27-9.33-13.22-13.65-15.24-13.94-6.53-16.61-6.28-21.46-6.1-8.76.33-13.27,3.49-18.29,6.35-8.89,5.06-15.71,16.67-14.41,25.33,1.61,10.74,6.89,15.93,12.27,19.63,7.19,4.95,9.6,4.65,19.3,2.54,1.9-.41,12.72-6.28,13.32-16.27.44-7.4-1.69-11.78-9-13.44-6.51-1.48-7.79-.22-11.17,3.3-.62.65-1.82,1.7-.4,3.16.26-.75,17.95-4.53,19.94.13,1.29,3.02.8,5.95.63,6.86-.57,3.18-2.19,5.25-3.17,6.48-2.57,3.21-8.02,7.82-15.62,7.87-7.45.05-14.5-4.21-18.16-10.54-4.19-7.24-2.43-14.57-1.9-16.63,1.87-7.3,6.65-11.55,8.87-13.19,7.5-5.51,15.46-6.38,18.05-6.56,10.94-.75,20.91,7.46,21.1,7.63,6.67,5.9,12.7,12.52,12.42,25.33-.16,7.16-1.88,12.76-6.16,19.68-5.95,9.65-13.34,15.34-17.4,18.41-.92.7-6.15,4.43-13.09,8.05-23,11.99-49.08,13.27-62.59,14.05-6.39.37-17.21.94-31.24-.38-12.83-1.21-29.41-4.12-29.35-4.55,0-.01.01-.02.02-.02-9.13-2.53-21.29-6.6-34.86-13.33-10.1-5.01-17.64-9.71-21.14-12.19-7.05-5-37.24-25.48-61.9-67.81-2.18-3.73-5.09-8.76-8.38-15.81-10.15-21.73-14.38-42.24-19.62-68.38-.57-2.84-.85-4.26-1.05-5.35-2.06-11.36-4.96-41.18,2.35-72.09.11-.62.23-1.23.36-1.84h0c.72-3.59,1.57-7.08,2.54-10.56,1.69-6.05,3.75-12.04,6.2-18.23,0,0,5.6-13.07,8.02-16.99l4.06-8.27c2.21-3.74,5.59-8.49,8.19-12.06,0-.01,2.85-3.54,2.86-3.56,4.74-6.22,9.71-10.25,16.59-16.98.02-.01.04-.03.05-.04,4.49-4.41,9.43-8.7,14.73-12.62.43-.32,1.19-.98,2.18-1.57,8.03-4.76,14.24-7.55,18.51-9.04,15.56-4.48,31.2-4.61,33.52-4.92,0,0,3.87-.25,3.87-.25.19.02,6.02-.04,9.46-.43.58-.07,1.43-.38,2.54-.62.83-.18,2.65-.59,4.57-2.14.56-.45,2.86-3.49,3.29-5.94.84-4.82.61-10.47-.51-15.01-.77-3.16-2.4-9.63-1.7-10.18,1.49-2.86,4.7-3.43,4.7-3.43.02,0,.26.01.28.02,6.18.34,9.27.52,10.33.62,3.04.3,5.14,1.08,9.08,2.54,4.13,1.53,10.28,4.28,17.27,9.27.03.01,5.49,3.46,5.52,3.48,2.34,1.56,3.51,3.26,5.78,3.63.71.12,1.3.13,1.71.13,2.46-.5,11.89.1,16.21,1.16,6.22,1.52,13.97,8.25,19.87,12.95,7.98,6.35,12.51,11.68,12.51,11.68.31.48,1.43,1.37,1.73,2.13.3.77.47,1.47.57,2.05.18.53.35,1.13.48,1.81.09.47.15.92.19,1.33.64,1.15,2.49,3.83,3.31,3.39.34-.18.72-1.39,1.22-3.53.52-3.21-.08-4.9-.25-6.05-.6-1.68-1.35-2.86-1.9-3.62-.92-1.26-1.99-2.23-4.1-4.19-.51-.48-.91-.83-1.05-.95-2.9-2.58-9.97-8.42-11.71-9.86Z"/></g><g><path class="cls-8" d="M379.41,355.33c0,44.03-36.52,79.73-81.57,79.73s-81.58-35.7-81.58-79.73,36.53-79.73,81.58-79.73,81.57,35.69,81.57,79.73Z"/><path class="cls-15" d="M326.9,349.31c-1.32-2.37-2.64-4.73-3.96-7.1-2.53-4.73-5.07-9.46-7.6-14.2-3-5.14-6-10.28-9.01-15.41-2.97-4.28-5.93-8.55-8.9-12.83-2.06-2.88-4.12-5.76-6.18-8.64,5.87-.72,15.4-1.11,26.41,2.05,16.01,4.59,26.09,14.09,30.48,18.79-1.44,2.39-19.3,34.29-21.24,37.33Z"/><path class="cls-35" d="M315.04,375.22c5.19-6.15,10.7-13.42,16.09-21.84,4.33-6.77,7.93-13.27,10.92-19.3,3.05-6.1,6.1-12.19,9.14-18.29,1.22,1.36,2.91,3.4,4.66,6.06,7.48,11.39,8.46,22.77,8.8,27.47.69,9.33-.85,17.22-2.54,22.86-6.93,1.09-14.48,1.99-22.6,2.54-8.78.6-16.98.71-24.47.51Z"/><path class="cls-28" d="M310.81,419.92c-3.05-4.43-6.1-8.87-9.15-13.3l-5.92-10.46-4.65-8.93-3.38-7c24.02,2.92,46.9,2.8,71.46-1.65-.7,2.36-1.78,5.35-3.45,8.64-.24.48-2.12,4.14-4.99,7.95-7.63,10.14-18.5,16.34-20.37,17.39-4.35,2.43-10.78,6.2-19.56,7.37Z"/><path class="cls-19" d="M304.72,421.18c-6.04.55-18.22.83-31.94-4.88-12.53-5.22-20.49-13-24.45-17.47,1.26-3.3,2.95-7.54,5.08-12.44.62-1.44,3.42-7.85,7.62-16.25,1.8-3.61,4.1-8.06,6.89-13.12,1.59,3.85,3.77,8.87,6.57,14.64,1.07,2.21,5.74,11.77,13.21,24.13,4.36,7.2,9.97,15.87,17.02,25.4Z"/><path class="cls-11" d="M255.65,369.05l-4.56,8.43c-1.21,2.22-2.43,4.7-3.59,7.45-1.37,3.24-2.42,6.3-3.23,9.08-1.68-1.86-3.55-4.22-5.33-7.11-2.01-3.26-3.38-6.33-4.32-8.89-1.62-4.83-3.4-11.95-3.52-20.7-.13-9.62,1.81-17.4,3.5-22.46,15.21-2.38,29.65-3.42,44.66-3.09l-7.83,11.79-8.53,13.23-7.25,12.27Z"/><path class="cls-17" d="M301.17,314.01c-4.46-7.05-8.95-13.72-13.42-20.03-.61-.86-1.22-1.72-1.83-2.57-.11.02-.23.04-.35.07-6.08,1.12-17.15,4.04-28.34,12.37-12.37,9.23-18.47,20.31-21.08,25.91,10.84-1.95,23.52-3.5,37.73-3.89,13.18-.38,25.09.32,35.41,1.47-2.57-4.38-5.27-8.82-8.12-13.33Z"/></g></g><g id="Calque_8" data-name="Calque 8"><path class="cls-32" d="M360.74,150.88l-5.29-5.81c-6.12-6.3-13.33-11.13-21.25-17.14-2.48-1.88-6.83-4.51-8.67-4.37-.09-.03-7.97-.95-8.06-.97-4.58-.88-10.17,2.84-12.5,4.38l-2.89,1.81-9.36,3.81c-1.1.38-2.74,1.51-4.04,1.82-2.46.6-4.73.9-6.7,1.03-.55.13-1.31.28-2.21.38-1.28.15-3.41-.43-6.35-1.02-1.55-.31-3.93,0-6.25-1.45-1.41-.89-2.42-1.85-3.08-2.57.08,1.71.2,3.49.38,5.33.36,3.66.32,6.97.96,10.1.4,3.02,1.59,6.04,1.92,7.81.57,3.06,5.77,10.95,5.77,10.95,2.6,2.86,3.66,3.94,6.44,5.96.16.11,2.9,1.63,2.98,1.65,7.05,1.78,11.96,2.61,17.47-.63,7.31-3.68,8.88-3.53,14.11-4.95,1.86-.51,4.44-.77,5.07-.89.85-.17,2.63-.24,3.82-.49,1.02-.21,2.22-.46,3.66-.76,3.56-.76,3.26-.72,5.82-1.25,5.05-1.04,5.21-.97,6.78-1.44,2.22-.66,2.1-.86,6.2-2.39,2.98-1.1,4.42-1.93,6.67-2.2,2.85-.35,6.86-1.39,9.84-.6,1.62-2.19,1-1.48,1-2.48,0-2.29-.74-2.12-2.25-3.63ZM316.68,160.56c-8.81,0-15.96-7.36-15.96-16.43s7.44-16.24,16.26-16.24,16.45,7.83,16.45,16.9-7.94,15.77-16.75,15.77Z"/><g id="Calque_11" data-name="Calque 11"><path class="cls-25" d="M278.57,177.97c-.24.19-.47.38-.71.56-.47.13-1.13.33-1.9.61-.87.31-2.04,1.04-4.48,2.45-2.32,1.34-4.22,2-5.32,2.88-.93.74-1.91,1.62-2.33,1.28-.24-.19-.11-.62-.29-2.04,0,0-.08-.81-.27-1.58-.28-1.11-.63-1.89-.93-2.56,0,0-1.01-2.19-2.61-4.05-1.88-2.17-5.44-4.35-10.08-5.22-2.47.5-6.17,1.34-10.64,2.66-2.52,1.06-4.95,1.92-7.19,2.34-3.83.73-9.14,3.02-16.15,4.9-2.56.94-5.37,2.14-8.35,3.67-2.92,1.51-5.52,3.09-7.79,4.63.32-2.81,1.04-6.69,2.71-10.97,1.5-3.83,3.29-6.77,4.76-8.84,1.52-2.13,4.19-5.87,8.77-8.95,4.97-3.34,9.94-5.19,11.98-5.34,4.86-.36,5.23-.52,10.16-.38,1.85.05,4.54.19,5.46.25,17.51,1.31,31.35,15.56,31.97,16.38.75.98,1.27,1.56,1.27,1.56,0,0,.79.73.79.73.49,2.22.72,3.61,1.17,5.01Z"/></g></g><g id="bouche"><g id="C-2" data-name="C"><path class="cls-24" d="M353.1,179.48c-1.43,1.85-1.61,2.53-1.61,2.53-.6.78-1.26,1.71-2.48,2.68-.7.55-2.05-2.74-2.4-2.42-.56.51,0,.08-2.26,2.92-.95,1.2-1.78,2.16-2.5,3.25-.82,1.26-1.81,2.4-2.21,2.4-.82-.01-.91-4.02-2.05-4.16-.25-.03.22-.39-1.77,1.75s-1.91,2.47-2.66,3.28c-.64.7-2.18,2.25-3.06,2.54-1.86,1.47-1.18-3.04-1.53-3.12-.66-.15-.79.03-2.62,1.73-1.92,1.79-6.23,4.89-6.4,4.72-2.45,1.65-1.96-1.72-2.26-3.29-.04-.22-2.36,1.79-2.74,2.08-.29.23-1.2,1.04-1.91,1.62-1.01.84-3.15,2.24-3.15,2.24-1.75,1.46-2.28,2.17-2.55,1.95-1.3-1.07-1.75-3.14-1.75-3.15-.23-.24-.12-1.5-.57-1.17-.97.7-2.02,1.16-2.86,1.75-.56.4-5.5,3.26-6.05,3.51-2.29,1.62-4.4,1.52-2.36-2.53.53-1.04-11.54.86-12.74.78-5.43-.38-12.05,2.02-18.26,4.42-.41.15-4.35,2.08-4.9,2.27-2.43.89-3.45,1.9-3.93,1.98-.59.1-1.49.08-4.53-1.41-1.29-.64-8.05-4.65-11.36-6.76-.58-.37-1.23-.79-1.96-1.24h-.01c-.14-.1-.28-.19-.43-.29-.23-.13-.62-.39-1.16-.73-.41-.25-2.51-1.49-2.96-1.76-.92-.53-1.38-.8-2.07-1.18-1.85-1.01-2.63-1.31-2.6-1.4.05-.16,3.21,1.54,7.44,1.95.54.05,1.1.06,1.77.04h.01c.47-.02.98-.05,1.56-.09.95-.08,2.1-.19,3.53-.34,3.87-.39,5.81-.58,8.02-1.17,1.11-.3,2.08-.55,2.96-.84h.02c1.23-.41,2.34-.89,3.52-1.7,1.11-.76,2.07-1.62,2.83-2.42h0c.54-.58.99-1.14,1.34-1.59.32-.22.62-.45.91-.72.97-.85,1.14-2.47,1.71-3.62-.53,7.46-6.05,14.3-6.94,14.11-.55.61-.85.89-.76,1.11.41.96,7.29-2.18,17.21-3.95,1.05-.18,2.13-.36,3.24-.5.37-.06.75-.11,1.13-.15,3.53-.43,2.9-.09,8.27-.52,13.35-1.09,23.29-3.66,25.39-4.23.66-.17,1.69-.46,3.05-.85.82-.25,1.76-.53,2.81-.87,3.59-1.14,8.39-2.84,13.75-5.17,2.92-1.27,6.51-2.85,10.54-5.08.95-.52,1.92-1.09,2.92-1.69.01-.01.02-.01.03-.02.13-.07.27-.16.4-.25.2-.12.41-.25.62-.38.27-.16.55-.34.82-.52.44-.28.88-.56,1.32-.85,2.91-1.9,5.64-3.87,6.39-4.41,2.23-1.6,9.15-7.17,9.02-6.67-2.67,10.46-7.28,14.36-8.21,15.57Z"/><path class="cls-26" d="M351.89,171.43c-.77.51-3.52,2.49-6.47,4.37-.45.28-.89.57-1.34.84-.27.18-.56.35-.83.52-.21.13-.43.25-.63.38-.13.08-.27.17-.41.24-.01.01-.02.01-.03.02-1.01.6-1.99,1.16-2.95,1.67-4.08,2.21-7.72,3.77-10.67,5.03-5.43,2.31-10.29,4-13.93,5.12-1.06.33-2.01.62-2.84.86-1.37.39-2.42.67-3.09.84-2.13.56-12.19,3.11-25.72,4.19-5.44.43-4.8.09-8.38.52-.39.04-.77.09-1.15.15-1.13.14-2.21.31-3.28.5-10.05,1.75-17.02,4.87-17.43,3.92-.09-.21.21-.49.77-1.1.85-.68,1.58-1.41,2.22-2.16.02-.02.04-.04.05-.06,2.56-2.86,3.41-4.98,3.73-6.34.11-.48.52-2.42.75-3.57.3-1.48.49-2.4.51-2.5.33-1.57,4.27-5.54,17.19-9.14.29.42.82,1.52,1.39,2.03,0,0,5.95,3.62,8.17,4.81,1.23.66,4,.74,4,.74.09-.02,1.84-.45,2.22-.57,1.07-.33,1.9-.65,2.28-.81.29-.12.6-.23.9-.39,17.7-9.15,39.96-12.39,42.85-13.09,10.4-2.51,20.19-5.19,21.03-5.4,2.69.21-.58,2.79-8.93,8.37Z"/><path class="cls-2" d="M210.7,277.13c-1.3,2.8-2.29,6.48-5.71,7.62-.28.09-3.19-2.89-8.07-4.82h-.01s-.08-.03-.12-.05c-2.81-1.09-6.23-1.78-10.09-1.23l-12.41,2.4-1.87.36c-2.07.22-4.08.45-5.91-3.33-1.17-2.41-3.53-7.86-4.2-11.3-1.49-7.72-1.33-10.41-5.78-16.51-.46,17.3-4.02,20.48-6.43,25.05-4.87,8.6-10.91,20.92-15.57,36.6l-.26.37-.62.87c-.08-.04-.16-.07-.24-.11-.23-.1-.45-.21-.65-.35-.22-.16-.61-.35-.67-.76-1.18-8.33-8.45-39.51.54-59.53.02-.04-.02.04,0,0,3.33-8.49,7.68-14.92,14.75-21.55.04-.04.09-.08.12-.13.18-.16.35-.33.53-.49l.02-.02c2.77-2.69,5.62-5.6,8.61-6.84.06-.37,1.82-1.39,1.84-.98,5.28-3,8.67-2.3,12.33,4.05.28.49.63,1.39.9,2.51,1.03,4.29,2.5,9.5,2.5,9.5l3.9,28.38c-.37.12.19,2.48.19,2.48.09.2.11-1.27.43-2.92.19-.83,1.46-4.63,1.46-4.63,1.83-4.36,10.21-8.54,14.11-6.83.69.3-.86,1.81-2.1,3.43l-1.52,2.29c-.28.68-.38,1.9,1.43,3.14l10.19,3.62c2.11.75,4.86,2.62,5.81,3.62,1.36,1.43,3.7,3.69,2.57,6.1Z"/><path class="cls-16" d="M178.47,247.09s-.04,21.9-.15,22.23c-.02-.12-2.82-15.38-3.63-25.67-.41-5.15-1.15-7.2-1.93-10.4-.39-1.6-.83-3.03-1.34-4.27-.31-1.11-.57-2.05-.89-2.51-4.22-5.98-5.87-6.93-13.76-3.15-.04,0-.77.63-.81.66-2.86,1.99-3.34,2.72-6.98,5.78,0,.1-.25.38-1.9,1.71-6.41,6.52-11.48,13.45-14.45,21-.02.04-.03.08-.05.12-.82,1.78-1.49,3.48-1.96,4.99,3.05-18.47,16.2-31.43,17.58-33.17,5.01-5.47,11.62-11.77,21.03-8,3.35,1.35,5.94,5.16,7.15,9.09,1.7,5.54,2.32,16.47,2.1,21.59Z"/><path class="cls-6" d="M286.49,241c-.97.99-3.64,1.46-4.67,2-.01,0-3.58.13-3.75.08-.28-.08-2.14-.54-2.28-.52-.76-.39-1.55-.79-2.36-1.2-10.36-5.18-24.49-11.74-28.56-12.78l-2.04-.87-29.69-13.52c-1.68-.61-4.83-2.42-7.05-3.9-2.82-1.89-3.75-3.11-5.05-4.71-.02.02-.08.03-.06.05-1.21-1.61-1.95-3.43-2.34-5.33-.01,0-.01-.03-.01-.04-.1-.78,2.44-10.92,3.28-11.71,1.36-1.28,3.2-3.04,2.75-2.74-3.19,2.11,26.39,2.41,6,16.86-3.24,2.3,2.67,2.19,4.33,6.66.8.47,1.62.94,2.46,1.42,1.45.82,2.97,1.63,4.53,2.45.39.2.79.41,1.19.61,6.9,3.51,14.77,6.9,23.29,9.96,6.35,2.28,12.6,4.2,18.56,5.74,2.73,2.35,5.92,4.57,9.51,6.55,4.94,2.73,7.13,3.83,11.97,4.95Z"/><path class="cls-7" d="M286.1,211.43c-2.63-.14-15.32,5.13-12.54,7.64,1.98,1.79,9.95,6.84,12.09,13.34.14.44.27.88.35,1.33l.6,6.66c-.24.39-.49.76-.75,1.09-4.81-1.04-9.92-3-14.93-5.88-3.63-2.09-6.89-4.48-9.71-7.03-5.94-1.47-12.17-3.36-18.54-5.65-8.54-3.08-16.45-6.57-23.42-10.25-.4-.21-.81-.43-1.2-.64-1.58-.86-3.12-1.72-4.59-2.58-.85-.5-1.68-1-2.49-1.5-4.4-2.73-8.26-5.48-11.43-8.2.11-3.96,1.83-7.77,4.84-10.36.64-.58,1.34-1.07,2.09-1.51l.44-.25c.81.1,1.65.38,2.58.62,11.82,2.99,35.72,17.88,40.01,19.75,1.47.63,4.94,1.59,6.57,1.43,4.68-.48,5.97-2.2,11.33-3.52,16.59-4.1,23.64,5.78,18.67,5.52Z"/><path class="cls-12" d="M250.95,195.52c-1.68.76-3.4,1.31-6.48,1.71-4.91.65-7.37.85-9.33.57-2.47-.35-4.31-1.07-6.67-2-1.07-.42-2.43-1.07-5.14-2.38-3.47-1.67-5.09-2.2-7.41-3.27-.79-.37-2.62-1.05-3.86-1.52s-1.67-.59-2.19-.67c-2.37-.37-2.8-.95-4.52-1.38-.51-.13-1.43-.71-1.67-.95,1.68-.79,3.78-1.89,5.46-2.68,2.42-1.04,4.62-2.07,7.33-3.05,1.72-.62,4.07-1.48,5.71-2,1.14-.44,2.18-.82,3.33-1.24,2.86-1.05,5.45-1.44,8.13-2.63l4.01-1.99c.47-.15.94-.3,1.41-.45.44-.22,2.51-1.64,2.92-1.79,1.52-.58,4.76-1.52,8-1.14,6.69.79,10.68,6.4,11.43,7.43.99,1.35,3.01,4.62,2.38,8.48-1.21,7.46-10.95,10.1-12.86,10.95Z"/><path class="cls-20" d="M199.59,203.54c-.83.79-1.59,2.3-2.41,3.1l1.21,1.56c1.02,1.84,2.03,3.68,3.05,5.52.22,1.14.44,2.29.67,3.43.14.28.56,1.22.31,2.4-.22,1.05-.83,1.69-1.07,1.92-.32.72-.85,1.69-1.7,2.67-.7.8-1.4,1.38-1.98,1.78-.82.86-1.94,1.89-3.43,2.86-1.33.87-2.59,1.45-3.62,1.84-.54.22-1.22.46-2.03.62-.84.17-1.59.21-2.19.21-1.24-.42-2.2-.84-2.86-1.14-.43-.2-.68-.33-1.63-.8-.97-.48-1.77-.86-2.28-1.11-.68-.7-1.35-1.4-2.03-2.1,0,0-.83-.69-.83-.69h0s-.14-.03-.24.06c-.06.06-.09.14-.07.23l1.17,5.15.6,12.16-.22,12.03v8l.57,4.76c1.08-3.05,1.63-6.24,4.13-9.08,1.05-1.43,3.33-2.29,3.87-3.3l12.19-12.57,24.57-16.76,7.14-3.9-16.6-7.84c-.49-.23-.99-.45-1.49-.65-5.25-2.17-9.61-4.82-12.8-10.34Z"/></g><path class="cls-5" d="M423.83,421.57c0,3.17-2.13,6.88-3.04,9.73-3.35,5.3-5.4,9.71-9.42,14.52-19.72,23.61-46.98,40.89-78.16,48.31-13.65-2.64-26.62-6.54-38.68-11.52-10.27-4.23-19.88-9.24-28.69-14.93-35.6-22.98-58.13-56.97-58.13-94.88,0-.79.01-1.56.03-2.34,7.33,42.93,44.98,75.61,90.33,75.61,29.1,0,55.04-13.46,71.81-34.45,3.13-3.9,6.72-8.51,9.95-12.32,4.65-4.04,9.02-6.63,15.5-6.79.23-.02.47-.02.7-.02,3.9,0,7.61.84,10.97,2.35,9.9,4.45,16.83,14.74,16.83,26.73Z"/></g><g id="Calque_10" data-name="Calque 10"><path class="cls-9" d="M321.79,128.77c5.04,1.55,9.06,5.52,10.66,9.91,2.06,5.64,1.17,11.25-2.21,15.73-4.79,6.34-13.38,8.02-20.39,4.53-5.36-2.67-8.66-7.84-9.03-13.48-.4-5.97,2.5-11.31,7.26-14.74l.72-.24c3.98-2.12,8.64-3.04,12.99-1.7Z"/><path class="cls-3" d="M328.58,143.25c0-.07-.03-.13-.05-.2,0-.04-.03-.09-.05-.13-.02-.05-.04-.11-.07-.15,0-.02-.02-.04-.03-.04-.02-.03-.04-.05-.05-.07,0,0-.02-.03-.03-.04l-.02-.02s0-.02-.02-.03h0s-.06-.08-.1-.12c-.04-.04-.07-.08-.11-.11-.04-.04-.08-.08-.12-.12l-.03-.03h0s0,0,0,0h0s0-.02,0-.02h0s-.02-.03-.03-.04h0c-.06-.05-.12-.11-.2-.16-.02-.02-.04-.03-.05-.04-.04-.03-.06-.04-.1-.07h0s-.02,0-.03-.02c-.04-.03-.08-.06-.12-.09-.03-.02-.06-.04-.09-.05-.02,0-.03-.02-.04-.03-.03-.03-.06-.04-.09-.06-.09-.05-.17-.1-.26-.14-.06-.04-.13-.06-.2-.09h0s-.03-.02-.04-.02c0,0-.02-.02-.04-.03h0s-.05-.03-.09-.04c-.06-.03-.12-.04-.19-.07h-.03s-.02,0-.03,0c0,0,0,0,0,0h0s-.05,0-.08.03h0c-.05,0-.1.03-.14.04h0s0,0,0,0c-.09.04-.19.09-.27.16-.05.04-.11.09-.15.13-.04.04-.09.09-.12.14-.04.04-.07.09-.11.14,0,0,0,0,0,.02-.03.04-.06.09-.08.14,0,0,0,0,0,.02-.02.03-.03.05-.04.09,0,.04-.03.06-.04.1h0s0,.03,0,.04c0,0,0,0,0,.02h0s0,.04,0,.06c-.02.02-.02.04-.02.06h0s0,.03,0,.04c0,.03,0,.05-.02.08v.04s0,.03,0,.04c0,.06,0,.12,0,.19,0,.11,0,.22.03.33.02.11.04.2.08.31h0c.04.11.08.21.13.31.05.1.12.2.19.29.05.07.11.13.16.19.04.05.1.1.15.15,0,0,.02,0,.03.02h0s0,.02.02.02,0,0,0,0c.02,0,.02.02.04.03h0s.04.04.07.05c.05.04.11.08.17.11.04.03.08.04.12.06h0s0,0,.02,0h0s0,.02,0,.02c0,0,.02,0,.02,0,0,0,.03,0,.04,0,.03,0,.04.02.07.03.06.03.12.04.18.06,0,0,.03,0,.04,0,.07.02.14.03.22.04.07,0,.14.02.21.02.17,0,.34-.03.5-.08.04,0,.08-.02.12-.04.04-.02.08-.04.12-.05h0c.07-.04.14-.09.21-.14.02,0,.03-.03.04-.04,0,0,.03-.02.04-.03l.04-.04s.07-.07.11-.11c.06-.07.12-.14.17-.22.04-.05.06-.11.09-.17.04-.08.05-.16.07-.25.02-.08.03-.16.03-.25,0-.08,0-.17-.03-.25ZM328.58,143.25c0-.07-.03-.13-.05-.2,0-.04-.03-.09-.05-.13-.02-.05-.04-.11-.07-.15,0-.02-.02-.04-.03-.04-.02-.03-.04-.05-.05-.07,0,0-.02-.03-.03-.04l-.02-.02s0-.02-.02-.03h0s-.06-.08-.1-.12c-.04-.04-.07-.08-.11-.11-.04-.04-.08-.08-.12-.12l-.03-.03h0s0,0,0,0h0s0-.02,0-.02h0s-.02-.03-.03-.04h0c-.06-.05-.12-.11-.2-.16-.02-.02-.04-.03-.05-.04-.04-.03-.06-.04-.1-.07h0s-.02,0-.03-.02c-.04-.03-.08-.06-.12-.09-.03-.02-.06-.04-.09-.05-.02,0-.03-.02-.04-.03-.03-.03-.06-.04-.09-.06-.09-.05-.17-.1-.26-.14-.06-.04-.13-.06-.2-.09h0s-.03-.02-.04-.02c0,0-.02-.02-.04-.03h0s-.05-.03-.09-.04c-.06-.03-.12-.04-.19-.07h-.03s-.02,0-.03,0c0,0,0,0,0,0h0s-.05,0-.08.03h0c-.05,0-.1.03-.14.04h0s0,0,0,0c-.09.04-.19.09-.27.16-.05.04-.11.09-.15.13-.04.04-.09.09-.12.14-.04.04-.07.09-.11.14,0,0,0,0,0,.02-.03.04-.06.09-.08.14,0,0,0,0,0,.02-.02.03-.03.05-.04.09,0,.04-.03.06-.04.1h0s0,.03,0,.04c0,0,0,0,0,.02h0s0,.04,0,.06c-.02.02-.02.04-.02.06h0s0,.03,0,.04c0,.03,0,.05-.02.08v.04s0,.03,0,.04c0,.06,0,.12,0,.19,0,.11,0,.22.03.33.02.11.04.2.08.31h0c.04.11.08.21.13.31.05.1.12.2.19.29.05.07.11.13.16.19.04.05.1.1.15.15,0,0,.02,0,.03.02h0s0,.02.02.02,0,0,0,0c.02,0,.02.02.04.03h0s.04.04.07.05c.05.04.11.08.17.11.04.03.08.04.12.06h0s0,0,.02,0h0s0,.02,0,.02c0,0,.02,0,.02,0,0,0,.03,0,.04,0,.03,0,.04.02.07.03.06.03.12.04.18.06,0,0,.03,0,.04,0,.07.02.14.03.22.04.07,0,.14.02.21.02.17,0,.34-.03.5-.08.04,0,.08-.02.12-.04.04-.02.08-.04.12-.05h0c.07-.04.14-.09.21-.14.02,0,.03-.03.04-.04,0,0,.03-.02.04-.03l.04-.04s.07-.07.11-.11c.06-.07.12-.14.17-.22.04-.05.06-.11.09-.17.04-.08.05-.16.07-.25.02-.08.03-.16.03-.25,0-.08,0-.17-.03-.25ZM328.58,143.25c0-.07-.03-.13-.05-.2,0-.04-.03-.09-.05-.13-.02-.05-.04-.11-.07-.15,0-.02-.02-.04-.03-.04-.02-.03-.04-.05-.05-.07,0,0-.02-.03-.03-.04l-.02-.02s0-.02-.02-.03h0s-.06-.08-.1-.12c-.04-.04-.07-.08-.11-.11-.04-.04-.08-.08-.12-.12l-.03-.03h0s0,0,0,0h0s0-.02,0-.02h0s-.02-.03-.03-.04h0c-.06-.05-.12-.11-.2-.16-.02-.02-.04-.03-.05-.04-.04-.03-.06-.04-.1-.07h0s-.02,0-.03-.02c-.04-.03-.08-.06-.12-.09-.03-.02-.06-.04-.09-.05-.02,0-.03-.02-.04-.03-.03-.03-.06-.04-.09-.06-.09-.05-.17-.1-.26-.14-.06-.04-.13-.06-.2-.09h0s-.03-.02-.04-.02c0,0-.02-.02-.04-.03h0s-.05-.03-.09-.04c-.06-.03-.12-.04-.19-.07h-.03s-.02,0-.03,0c0,0,0,0,0,0h0s-.05,0-.08.03h0c-.05,0-.1.03-.14.04h0s0,0,0,0c-.09.04-.19.09-.27.16-.05.04-.11.09-.15.13-.04.04-.09.09-.12.14-.04.04-.07.09-.11.14,0,0,0,0,0,.02-.03.04-.06.09-.08.14,0,0,0,0,0,.02-.02.03-.03.05-.04.09,0,.04-.03.06-.04.1h0s0,.03,0,.04c0,0,0,0,0,.02h0s0,.04,0,.06c-.02.02-.02.04-.02.06h0s0,.03,0,.04c0,.03,0,.05-.02.08v.04s0,.03,0,.04c0,.06,0,.12,0,.19,0,.11,0,.22.03.33.02.11.04.2.08.31h0c.04.11.08.21.13.31.05.1.12.2.19.29.05.07.11.13.16.19.04.05.1.1.15.15,0,0,.02,0,.03.02h0s0,.02.02.02,0,0,0,0c.02,0,.02.02.04.03h0s.04.04.07.05c.05.04.11.08.17.11.04.03.08.04.12.06h0s0,0,.02,0h0s0,.02,0,.02c0,0,.02,0,.02,0,0,0,.03,0,.04,0,.03,0,.04.02.07.03.06.03.12.04.18.06,0,0,.03,0,.04,0,.07.02.14.03.22.04.07,0,.14.02.21.02.17,0,.34-.03.5-.08.04,0,.08-.02.12-.04.04-.02.08-.04.12-.05h0c.07-.04.14-.09.21-.14.02,0,.03-.03.04-.04,0,0,.03-.02.04-.03l.04-.04s.07-.07.11-.11c.06-.07.12-.14.17-.22.04-.05.06-.11.09-.17.04-.08.05-.16.07-.25.02-.08.03-.16.03-.25,0-.08,0-.17-.03-.25ZM328.58,143.25c0-.07-.03-.13-.05-.2,0-.04-.03-.09-.05-.13-.02-.05-.04-.11-.07-.15,0-.02-.02-.04-.03-.04-.02-.03-.04-.05-.05-.07,0,0-.02-.03-.03-.04l-.02-.02s0-.02-.02-.03h0s-.06-.08-.1-.12c-.04-.04-.07-.08-.11-.11-.04-.04-.08-.08-.12-.12l-.03-.03h0s0,0,0,0h0s0-.02,0-.02h0s-.02-.03-.03-.04h0c-.06-.05-.12-.11-.2-.16-.02-.02-.04-.03-.05-.04-.04-.03-.06-.04-.1-.07h0s-.02,0-.03-.02c-.04-.03-.08-.06-.12-.09-.03-.02-.06-.04-.09-.05-.02,0-.03-.02-.04-.03-.03-.03-.06-.04-.09-.06-.09-.05-.17-.1-.26-.14-.06-.04-.13-.06-.2-.09h0s-.03-.02-.04-.02c0,0-.02-.02-.04-.03h0s-.05-.03-.09-.04c-.06-.03-.12-.04-.19-.07h-.03s-.02,0-.03,0c0,0,0,0,0,0h0s-.05,0-.08.03h0c-.05,0-.1.03-.14.04h0s0,0,0,0c-.09.04-.19.09-.27.16-.05.04-.11.09-.15.13-.04.04-.09.09-.12.14-.04.04-.07.09-.11.14,0,0,0,0,0,.02-.03.04-.06.09-.08.14,0,0,0,0,0,.02-.02.03-.03.05-.04.09,0,.04-.03.06-.04.1h0s0,.03,0,.04c0,0,0,0,0,.02h0s0,.04,0,.06c-.02.02-.02.04-.02.06h0s0,.03,0,.04c0,.03,0,.05-.02.08v.04s0,.03,0,.04c0,.06,0,.12,0,.19,0,.11,0,.22.03.33.02.11.04.2.08.31h0c.04.11.08.21.13.31.05.1.12.2.19.29.05.07.11.13.16.19.04.05.1.1.15.15,0,0,.02,0,.03.02h0s0,.02.02.02,0,0,0,0c.02,0,.02.02.04.03h0s.04.04.07.05c.05.04.11.08.17.11.04.03.08.04.12.06h0s0,0,.02,0h0s0,.02,0,.02c0,0,.02,0,.02,0,0,0,.03,0,.04,0,.03,0,.04.02.07.03.06.03.12.04.18.06,0,0,.03,0,.04,0,.07.02.14.03.22.04.07,0,.14.02.21.02.17,0,.34-.03.5-.08.04,0,.08-.02.12-.04.04-.02.08-.04.12-.05h0c.07-.04.14-.09.21-.14.02,0,.03-.03.04-.04,0,0,.03-.02.04-.03l.04-.04s.07-.07.11-.11c.06-.07.12-.14.17-.22.04-.05.06-.11.09-.17.04-.08.05-.16.07-.25.02-.08.03-.16.03-.25,0-.08,0-.17-.03-.25ZM328.58,143.25c0-.07-.03-.13-.05-.2,0-.04-.03-.09-.05-.13-.02-.05-.04-.11-.07-.15,0-.02-.02-.04-.03-.04-.02-.03-.04-.05-.05-.07,0,0-.02-.03-.03-.04l-.02-.02s0-.02-.02-.03h0s-.06-.08-.1-.12c-.04-.04-.07-.08-.11-.11-.04-.04-.08-.08-.12-.12l-.03-.03h0s0,0,0,0h0s0-.02,0-.02h0s-.02-.03-.03-.04h0c-.06-.05-.12-.11-.2-.16-.02-.02-.04-.03-.05-.04-.04-.03-.06-.04-.1-.07h0s-.02,0-.03-.02c-.04-.03-.08-.06-.12-.09-.03-.02-.06-.04-.09-.05-.02,0-.03-.02-.04-.03-.03-.03-.06-.04-.09-.06-.09-.05-.17-.1-.26-.14-.06-.04-.13-.06-.2-.09h0s-.03-.02-.04-.02c0,0-.02-.02-.04-.03h0s-.05-.03-.09-.04c-.06-.03-.12-.04-.19-.07h-.03s-.02,0-.03,0c0,0,0,0,0,0h0s-.05,0-.08.03h0c-.05,0-.1.03-.14.04h0s0,0,0,0c-.09.04-.19.09-.27.16-.05.04-.11.09-.15.13-.04.04-.09.09-.12.14-.04.04-.07.09-.11.14,0,0,0,0,0,.02-.03.04-.06.09-.08.14,0,0,0,0,0,.02-.02.03-.03.05-.04.09,0,.04-.03.06-.04.1h0s0,.03,0,.04c0,0,0,0,0,.02h0s0,.04,0,.06c-.02.02-.02.04-.02.06h0s0,.03,0,.04c0,.03,0,.05-.02.08v.04s0,.03,0,.04c0,.06,0,.12,0,.19,0,.11,0,.22.03.33.02.11.04.2.08.31h0c.04.11.08.21.13.31.05.1.12.2.19.29.05.07.11.13.16.19.04.05.1.1.15.15,0,0,.02,0,.03.02h0s0,.02.02.02,0,0,0,0c.02,0,.02.02.04.03h0s.04.04.07.05c.05.04.11.08.17.11.04.03.08.04.12.06h0s0,0,.02,0h0s0,.02,0,.02c0,0,.02,0,.02,0,0,0,.03,0,.04,0,.03,0,.04.02.07.03.06.03.12.04.18.06,0,0,.03,0,.04,0,.07.02.14.03.22.04.07,0,.14.02.21.02.17,0,.34-.03.5-.08.04,0,.08-.02.12-.04.04-.02.08-.04.12-.05h0c.07-.04.14-.09.21-.14.02,0,.03-.03.04-.04,0,0,.03-.02.04-.03l.04-.04s.07-.07.11-.11c.06-.07.12-.14.17-.22.04-.05.06-.11.09-.17.04-.08.05-.16.07-.25.02-.08.03-.16.03-.25,0-.08,0-.17-.03-.25ZM328.58,143.25c0-.07-.03-.13-.05-.2,0-.04-.03-.09-.05-.13-.02-.05-.04-.11-.07-.15,0-.02-.02-.04-.03-.04-.02-.03-.04-.05-.05-.07,0,0-.02-.03-.03-.04l-.02-.02s0-.02-.02-.03h0s-.06-.08-.1-.12c-.04-.04-.07-.08-.11-.11-.04-.04-.08-.08-.12-.12l-.03-.03h0s0,0,0,0h0s0-.02,0-.02h0s-.02-.03-.03-.04h0c-.06-.05-.12-.11-.2-.16-.02-.02-.04-.03-.05-.04-.04-.03-.06-.04-.1-.07h0s-.02,0-.03-.02c-.04-.03-.08-.06-.12-.09-.03-.02-.06-.04-.09-.05-.02,0-.03-.02-.04-.03-.03-.03-.06-.04-.09-.06-.09-.05-.17-.1-.26-.14-.06-.04-.13-.06-.2-.09h0s-.03-.02-.04-.02c0,0-.02-.02-.04-.03h0s-.05-.03-.09-.04c-.06-.03-.12-.04-.19-.07h-.03s-.02,0-.03,0c0,0,0,0,0,0h0s-.05,0-.08.03h0c-.05,0-.1.03-.14.04h0s0,0,0,0c-.09.04-.19.09-.27.16-.05.04-.11.09-.15.13-.04.04-.09.09-.12.14-.04.04-.07.09-.11.14,0,0,0,0,0,.02-.03.04-.06.09-.08.14,0,0,0,0,0,.02-.02.03-.03.05-.04.09,0,.04-.03.06-.04.1h0s0,.03,0,.04c0,0,0,0,0,.02h0s0,.04,0,.06c-.02.02-.02.04-.02.06h0s0,.03,0,.04c0,.03,0,.05-.02.08v.04s0,.03,0,.04c0,.06,0,.12,0,.19,0,.11,0,.22.03.33.02.11.04.2.08.31h0c.04.11.08.21.13.31.05.1.12.2.19.29.05.07.11.13.16.19.04.05.1.1.15.15,0,0,.02,0,.03.02h0s0,.02.02.02,0,0,0,0c.02,0,.02.02.04.03h0s.04.04.07.05c.05.04.11.08.17.11.04.03.08.04.12.06h0s0,0,.02,0h0s0,.02,0,.02c0,0,.02,0,.02,0,0,0,.03,0,.04,0,.03,0,.04.02.07.03.06.03.12.04.18.06,0,0,.03,0,.04,0,.07.02.14.03.22.04.07,0,.14.02.21.02.17,0,.34-.03.5-.08.04,0,.08-.02.12-.04.04-.02.08-.04.12-.05h0c.07-.04.14-.09.21-.14.02,0,.03-.03.04-.04,0,0,.03-.02.04-.03l.04-.04s.07-.07.11-.11c.06-.07.12-.14.17-.22.04-.05.06-.11.09-.17.04-.08.05-.16.07-.25.02-.08.03-.16.03-.25,0-.08,0-.17-.03-.25ZM328.58,143.25c0-.07-.03-.13-.05-.2,0-.04-.03-.09-.05-.13-.02-.05-.04-.11-.07-.15,0-.02-.02-.04-.03-.04-.02-.03-.04-.05-.05-.07,0,0-.02-.03-.03-.04l-.02-.02s0-.02-.02-.03h0s-.06-.08-.1-.12c-.04-.04-.07-.08-.11-.11-.04-.04-.08-.08-.12-.12l-.03-.03h0s0,0,0,0h0s0-.02,0-.02h0s-.02-.03-.03-.04h0c-.06-.05-.12-.11-.2-.16-.02-.02-.04-.03-.05-.04-.04-.03-.06-.04-.1-.07h0s-.02,0-.03-.02c-.04-.03-.08-.06-.12-.09-.03-.02-.06-.04-.09-.05-.02,0-.03-.02-.04-.03-.03-.03-.06-.04-.09-.06-.09-.05-.17-.1-.26-.14-.06-.04-.13-.06-.2-.09h0s-.03-.02-.04-.02c0,0-.02-.02-.04-.03h0s-.05-.03-.09-.04c-.06-.03-.12-.04-.19-.07h-.03s-.02,0-.03,0c0,0,0,0,0,0h0s-.05,0-.08.03h0c-.05,0-.1.03-.14.04h0s0,0,0,0c-.09.04-.19.09-.27.16-.05.04-.11.09-.15.13-.04.04-.09.09-.12.14-.04.04-.07.09-.11.14,0,0,0,0,0,.02-.03.04-.06.09-.08.14,0,0,0,0,0,.02-.02.03-.03.05-.04.09,0,.04-.03.06-.04.1h0s0,.03,0,.04c0,0,0,0,0,.02h0s0,.04,0,.06c-.02.02-.02.04-.02.06h0s0,.03,0,.04c0,.03,0,.05-.02.08v.04s0,.03,0,.04c0,.06,0,.12,0,.19,0,.11,0,.22.03.33.02.11.04.2.08.31h0c.04.11.08.21.13.31.05.1.12.2.19.29.05.07.11.13.16.19.04.05.1.1.15.15,0,0,.02,0,.03.02h0s0,.02.02.02,0,0,0,0c.02,0,.02.02.04.03h0s.04.04.07.05c.05.04.11.08.17.11.04.03.08.04.12.06h0s0,0,.02,0h0s0,.02,0,.02c0,0,.02,0,.02,0,0,0,.03,0,.04,0,.03,0,.04.02.07.03.06.03.12.04.18.06,0,0,.03,0,.04,0,.07.02.14.03.22.04.07,0,.14.02.21.02.17,0,.34-.03.5-.08.04,0,.08-.02.12-.04.04-.02.08-.04.12-.05h0c.07-.04.14-.09.21-.14.02,0,.03-.03.04-.04,0,0,.03-.02.04-.03l.04-.04s.07-.07.11-.11c.06-.07.12-.14.17-.22.04-.05.06-.11.09-.17.04-.08.05-.16.07-.25.02-.08.03-.16.03-.25,0-.08,0-.17-.03-.25ZM328.58,143.25c0-.07-.03-.13-.05-.2,0-.04-.03-.09-.05-.13-.02-.05-.04-.11-.07-.15,0-.02-.02-.04-.03-.04-.02-.03-.04-.05-.05-.07,0,0-.02-.03-.03-.04l-.02-.02s0-.02-.02-.03h0s-.06-.08-.1-.12c-.04-.04-.07-.08-.11-.11-.04-.04-.08-.08-.12-.12l-.03-.03h0s0,0,0,0h0s0-.02,0-.02h0s-.02-.03-.03-.04h0c-.06-.05-.12-.11-.2-.16-.02-.02-.04-.03-.05-.04-.04-.03-.06-.04-.1-.07h0s-.02,0-.03-.02c-.04-.03-.08-.06-.12-.09-.03-.02-.06-.04-.09-.05-.02,0-.03-.02-.04-.03-.03-.03-.06-.04-.09-.06-.09-.05-.17-.1-.26-.14-.06-.04-.13-.06-.2-.09h0s-.03-.02-.04-.02c0,0-.02-.02-.04-.03h0s-.05-.03-.09-.04c-.06-.03-.12-.04-.19-.07h-.03s-.02,0-.03,0c0,0,0,0,0,0h0s-.05,0-.08.03h0c-.05,0-.1.03-.14.04h0s0,0,0,0c-.09.04-.19.09-.27.16-.05.04-.11.09-.15.13-.04.04-.09.09-.12.14-.04.04-.07.09-.11.14,0,0,0,0,0,.02-.03.04-.06.09-.08.14,0,0,0,0,0,.02-.02.03-.03.05-.04.09,0,.04-.03.06-.04.1h0s0,.03,0,.04c0,0,0,0,0,.02h0s0,.04,0,.06c-.02.02-.02.04-.02.06h0s0,.03,0,.04c0,.03,0,.05-.02.08v.04s0,.03,0,.04c0,.06,0,.12,0,.19,0,.11,0,.22.03.33.02.11.04.2.08.31h0c.04.11.08.21.13.31.05.1.12.2.19.29.05.07.11.13.16.19.04.05.1.1.15.15,0,0,.02,0,.03.02h0s0,.02.02.02,0,0,0,0c.02,0,.02.02.04.03h0s.04.04.07.05c.05.04.11.08.17.11.04.03.08.04.12.06h0s0,0,.02,0h0s0,.02,0,.02c0,0,.02,0,.02,0,0,0,.03,0,.04,0,.03,0,.04.02.07.03.06.03.12.04.18.06,0,0,.03,0,.04,0,.07.02.14.03.22.04.07,0,.14.02.21.02.17,0,.34-.03.5-.08.04,0,.08-.02.12-.04.04-.02.08-.04.12-.05h0c.07-.04.14-.09.21-.14.02,0,.03-.03.04-.04,0,0,.03-.02.04-.03l.04-.04s.07-.07.11-.11c.06-.07.12-.14.17-.22.04-.05.06-.11.09-.17.04-.08.05-.16.07-.25.02-.08.03-.16.03-.25,0-.08,0-.17-.03-.25ZM330.81,139.83c-2.42-6.06-8.07-10.13-13.95-8.72-6.22,1.49-9.89,8.05-8.25,14.41s8,10.21,14.19,8.62c6.2-1.6,10.44-8.22,8.01-14.3ZM329.33,145.03c-.71,2.09-2.69,3.64-5.57,3.24-.16-.16-2.06-1.89-2.13-2-.04-.06-.82-.12-.83-.13,0,0-1.78-4.7-1.81-4.76l-.46-.89s.02-.07.04-.11h0s0-.04,0-.04c0,0,.02-.04.02-.04,0,0,.09-.32.12-.41,0-.04.02-.06.04-.1,0,0,.08-.22.12-.31,0,0,0,0,0-.02,0-.03.02-.06.04-.09,0-.03.02-.05.04-.08.03-.06.06-.13.1-.2.04-.11.1-.2.15-.3,0-.02.02-.04.03-.05h0s.02-.04.04-.05c0,0,.02-.03.03-.04,0,0,0-.03.02-.04,0-.03.03-.04.04-.07h0c.06-.11.12-.2.19-.3,0,0,.02-.02.02-.03,0,0,.02-.03.03-.04.11-.15.21-.29.33-.43h0c.12-.16.26-.3.4-.43l.04-.04s.03-.03.04-.04c.03-.03.05-.06.09-.08h0s0-.03.02-.03t.02,0c.07-.08.14-.13.21-.2.12-.1.24-.19.36-.27h0s0,0,.02-.02c.02-.02.04-.03.05-.04h0s0,0,0,0h0s.04-.04.05-.04c.02,0,.04-.03.05-.04.04-.04.09-.06.14-.08.04-.04.09-.06.13-.08l.05-.03s.04-.03.05-.04c.03-.02.04-.03.07-.04.12-.06.25-.12.38-.16.02-.02.04-.03.07-.04.02,0,.04-.02.06-.02.1-.04.2-.07.31-.1.04-.02.08-.03.12-.04h0s.02,0,.03,0h.02s0,0,0,0h0s.02,0,.04,0t.02,0h0c.15-.04.3-.06.46-.08.19-.03.38-.04.58-.04s.39,0,.58.04c.16.02.31.04.46.08h0s0,0,.02,0c.02,0,.03,0,.04,0h0s0,0,0,0h.02s.02,0,.03,0h0s.08.02.12.04c.11.03.21.05.31.1.02,0,.04,0,.06.02.02,0,.04.02.05.03h0c.15.05.31.12.45.2.14.06.27.14.41.23.04.02.06.04.09.05.02,0,.04.03.07.05.13.09.27.19.39.28h0s.02.02.03.03c.04.04.09.07.12.12.03.02.05.04.08.07.02.02.04.03.05.04.03,0,.04.03.05.04.04.03.07.06.09.09.14.13.27.27.4.43h0s0,0,0,0c.12.14.22.28.33.43,0,0,.02.03.03.04,0,0,0,.02.02.03.06.1.12.2.19.29h0s.04.05.04.08c0,0,.02.03.02.04,0,0,.02.03.03.04.02.02.03.03.04.04h0s.02.04.03.06c.09.16.17.32.25.49h0s.03.06.04.09c.02.03.03.06.04.09,0,0,0,0,0,.02.04.09.08.19.12.27,0,0,0,.03,0,.04.02.04.03.07.04.1.04.09.06.19.09.28.04.11.07.21.1.33.02.06.04.12.04.2,0,.03.02.05.02.08.03.07.04.14.05.22,0,.04.02.09.03.13.08.44.12.9.12,1.36,0,.72-.1,1.4-.27,2.05.04.16.14.34.09.5ZM328.52,143.06s-.03-.09-.05-.13c-.02-.05-.04-.11-.07-.15,0-.02-.02-.04-.03-.04-.02-.03-.04-.05-.05-.07,0,0-.02-.03-.03-.04l-.02-.02s0-.02-.02-.03h0s-.06-.08-.1-.12c-.04-.04-.07-.08-.11-.11-.04-.04-.08-.08-.12-.12l-.03-.03h0s0,0,0,0h0s0-.02,0-.02h0s-.02-.03-.03-.04h0c-.06-.05-.12-.11-.2-.16-.02-.02-.04-.03-.05-.04-.04-.03-.06-.04-.1-.07h0s-.02,0-.03-.02c-.04-.03-.08-.06-.12-.09-.03-.02-.06-.04-.09-.05-.02,0-.03-.02-.04-.03-.03-.03-.06-.04-.09-.06-.09-.05-.17-.1-.26-.14-.06-.04-.13-.06-.2-.09h0s-.03-.02-.04-.02c0,0-.02-.02-.04-.03h0s-.05-.03-.09-.04c-.06-.03-.12-.04-.19-.07h-.03s-.02,0-.03,0c0,0,0,0,0,0h0s-.05,0-.08.03h0c-.05,0-.1.03-.14.04h0s0,0,0,0c-.09.04-.19.09-.27.16-.05.04-.11.09-.15.13-.04.04-.09.09-.12.14-.04.04-.07.09-.11.14,0,0,0,0,0,.02-.03.04-.06.09-.08.14,0,0,0,0,0,.02-.02.03-.03.05-.04.09,0,.04-.03.06-.04.1h0s0,.03,0,.04c0,0,0,0,0,.02h0s0,.04,0,.06c-.02.02-.02.04-.02.06h0s0,.03,0,.04c0,.03,0,.05-.02.08v.04s0,.03,0,.04c0,.06,0,.12,0,.19,0,.11,0,.22.03.33.02.11.04.2.08.31h0c.04.11.08.21.13.31.05.1.12.2.19.29.05.07.11.13.16.19.04.05.1.1.15.15,0,0,.02,0,.03.02h0s0,.02.02.02,0,0,0,0c.02,0,.02.02.04.03h0s.04.04.07.05c.05.04.11.08.17.11.04.03.08.04.12.06h0s0,0,.02,0h0s0,.02,0,.02c0,0,.02,0,.02,0,0,0,.03,0,.04,0,.03,0,.04.02.07.03.06.03.12.04.18.06,0,0,.03,0,.04,0,.07.02.14.03.22.04.07,0,.14.02.21.02.17,0,.34-.03.5-.08.04,0,.08-.02.12-.04.04-.02.08-.04.12-.05h0c.07-.04.14-.09.21-.14.02,0,.03-.03.04-.04,0,0,.03-.02.04-.03l.04-.04s.07-.07.11-.11c.06-.07.12-.14.17-.22.04-.05.06-.11.09-.17.04-.08.05-.16.07-.25.02-.08.03-.16.03-.25,0-.08,0-.17-.03-.25,0-.07-.03-.13-.05-.2ZM328.58,143.25c0-.07-.03-.13-.05-.2,0-.04-.03-.09-.05-.13-.02-.05-.04-.11-.07-.15,0-.02-.02-.04-.03-.04-.02-.03-.04-.05-.05-.07,0,0-.02-.03-.03-.04l-.02-.02s0-.02-.02-.03h0s-.06-.08-.1-.12c-.04-.04-.07-.08-.11-.11-.04-.04-.08-.08-.12-.12l-.03-.03h0s0,0,0,0h0s0-.02,0-.02h0s-.02-.03-.03-.04h0c-.06-.05-.12-.11-.2-.16-.02-.02-.04-.03-.05-.04-.04-.03-.06-.04-.1-.07h0s-.02,0-.03-.02c-.04-.03-.08-.06-.12-.09-.03-.02-.06-.04-.09-.05-.02,0-.03-.02-.04-.03-.03-.03-.06-.04-.09-.06-.09-.05-.17-.1-.26-.14-.06-.04-.13-.06-.2-.09h0s-.03-.02-.04-.02c0,0-.02-.02-.04-.03h0s-.05-.03-.09-.04c-.06-.03-.12-.04-.19-.07h-.03s-.02,0-.03,0c0,0,0,0,0,0h0s-.05,0-.08.03h0c-.05,0-.1.03-.14.04h0s0,0,0,0c-.09.04-.19.09-.27.16-.05.04-.11.09-.15.13-.04.04-.09.09-.12.14-.04.04-.07.09-.11.14,0,0,0,0,0,.02-.03.04-.06.09-.08.14,0,0,0,0,0,.02-.02.03-.03.05-.04.09,0,.04-.03.06-.04.1h0s0,.03,0,.04c0,0,0,0,0,.02h0s0,.04,0,.06c-.02.02-.02.04-.02.06h0s0,.03,0,.04c0,.03,0,.05-.02.08v.04s0,.03,0,.04c0,.06,0,.12,0,.19,0,.11,0,.22.03.33.02.11.04.2.08.31h0c.04.11.08.21.13.31.05.1.12.2.19.29.05.07.11.13.16.19.04.05.1.1.15.15,0,0,.02,0,.03.02h0s0,.02.02.02,0,0,0,0c.02,0,.02.02.04.03h0s.04.04.07.05c.05.04.11.08.17.11.04.03.08.04.12.06h0s0,0,.02,0h0s0,.02,0,.02c0,0,.02,0,.02,0,0,0,.03,0,.04,0,.03,0,.04.02.07.03.06.03.12.04.18.06,0,0,.03,0,.04,0,.07.02.14.03.22.04.07,0,.14.02.21.02.17,0,.34-.03.5-.08.04,0,.08-.02.12-.04.04-.02.08-.04.12-.05h0c.07-.04.14-.09.21-.14.02,0,.03-.03.04-.04,0,0,.03-.02.04-.03l.04-.04s.07-.07.11-.11c.06-.07.12-.14.17-.22.04-.05.06-.11.09-.17.04-.08.05-.16.07-.25.02-.08.03-.16.03-.25,0-.08,0-.17-.03-.25ZM328.58,143.25c0-.07-.03-.13-.05-.2,0-.04-.03-.09-.05-.13-.02-.05-.04-.11-.07-.15,0-.02-.02-.04-.03-.04-.02-.03-.04-.05-.05-.07,0,0-.02-.03-.03-.04l-.02-.02s0-.02-.02-.03h0s-.06-.08-.1-.12c-.04-.04-.07-.08-.11-.11-.04-.04-.08-.08-.12-.12l-.03-.03h0s0,0,0,0h0s0-.02,0-.02h0s-.02-.03-.03-.04h0c-.06-.05-.12-.11-.2-.16-.02-.02-.04-.03-.05-.04-.04-.03-.06-.04-.1-.07h0s-.02,0-.03-.02c-.04-.03-.08-.06-.12-.09-.03-.02-.06-.04-.09-.05-.02,0-.03-.02-.04-.03-.03-.03-.06-.04-.09-.06-.09-.05-.17-.1-.26-.14-.06-.04-.13-.06-.2-.09h0s-.03-.02-.04-.02c0,0-.02-.02-.04-.03h0s-.05-.03-.09-.04c-.06-.03-.12-.04-.19-.07h-.03s-.02,0-.03,0c0,0,0,0,0,0h0s-.05,0-.08.03h0c-.05,0-.1.03-.14.04h0s0,0,0,0c-.09.04-.19.09-.27.16-.05.04-.11.09-.15.13-.04.04-.09.09-.12.14-.04.04-.07.09-.11.14,0,0,0,0,0,.02-.03.04-.06.09-.08.14,0,0,0,0,0,.02-.02.03-.03.05-.04.09,0,.04-.03.06-.04.1h0s0,.03,0,.04c0,0,0,0,0,.02h0s0,.04,0,.06c-.02.02-.02.04-.02.06h0s0,.03,0,.04c0,.03,0,.05-.02.08v.04s0,.03,0,.04c0,.06,0,.12,0,.19,0,.11,0,.22.03.33.02.11.04.2.08.31h0c.04.11.08.21.13.31.05.1.12.2.19.29.05.07.11.13.16.19.04.05.1.1.15.15,0,0,.02,0,.03.02h0s0,.02.02.02,0,0,0,0c.02,0,.02.02.04.03h0s.04.04.07.05c.05.04.11.08.17.11.04.03.08.04.12.06h0s0,0,.02,0h0s0,.02,0,.02c0,0,.02,0,.02,0,0,0,.03,0,.04,0,.03,0,.04.02.07.03.06.03.12.04.18.06,0,0,.03,0,.04,0,.07.02.14.03.22.04.07,0,.14.02.21.02.17,0,.34-.03.5-.08.04,0,.08-.02.12-.04.04-.02.08-.04.12-.05h0c.07-.04.14-.09.21-.14.02,0,.03-.03.04-.04,0,0,.03-.02.04-.03l.04-.04s.07-.07.11-.11c.06-.07.12-.14.17-.22.04-.05.06-.11.09-.17.04-.08.05-.16.07-.25.02-.08.03-.16.03-.25,0-.08,0-.17-.03-.25ZM328.58,143.25c0-.07-.03-.13-.05-.2,0-.04-.03-.09-.05-.13-.02-.05-.04-.11-.07-.15,0-.02-.02-.04-.03-.04-.02-.03-.04-.05-.05-.07,0,0-.02-.03-.03-.04l-.02-.02s0-.02-.02-.03h0s-.06-.08-.1-.12c-.04-.04-.07-.08-.11-.11-.04-.04-.08-.08-.12-.12l-.03-.03h0s0,0,0,0h0s0-.02,0-.02h0s-.02-.03-.03-.04h0c-.06-.05-.12-.11-.2-.16-.02-.02-.04-.03-.05-.04-.04-.03-.06-.04-.1-.07h0s-.02,0-.03-.02c-.04-.03-.08-.06-.12-.09-.03-.02-.06-.04-.09-.05-.02,0-.03-.02-.04-.03-.03-.03-.06-.04-.09-.06-.09-.05-.17-.1-.26-.14-.06-.04-.13-.06-.2-.09h0s-.03-.02-.04-.02c0,0-.02-.02-.04-.03h0s-.05-.03-.09-.04c-.06-.03-.12-.04-.19-.07h-.03s-.02,0-.03,0c0,0,0,0,0,0h0s-.05,0-.08.03h0c-.05,0-.1.03-.14.04h0s0,0,0,0c-.09.04-.19.09-.27.16-.05.04-.11.09-.15.13-.04.04-.09.09-.12.14-.04.04-.07.09-.11.14,0,0,0,0,0,.02-.03.04-.06.09-.08.14,0,0,0,0,0,.02-.02.03-.03.05-.04.09,0,.04-.03.06-.04.1h0s0,.03,0,.04c0,0,0,0,0,.02h0s0,.04,0,.06c-.02.02-.02.04-.02.06h0s0,.03,0,.04c0,.03,0,.05-.02.08v.04s0,.03,0,.04c0,.06,0,.12,0,.19,0,.11,0,.22.03.33.02.11.04.2.08.31h0c.04.11.08.21.13.31.05.1.12.2.19.29.05.07.11.13.16.19.04.05.1.1.15.15,0,0,.02,0,.03.02h0s0,.02.02.02,0,0,0,0c.02,0,.02.02.04.03h0s.04.04.07.05c.05.04.11.08.17.11.04.03.08.04.12.06h0s0,0,.02,0h0s0,.02,0,.02c0,0,.02,0,.02,0,0,0,.03,0,.04,0,.03,0,.04.02.07.03.06.03.12.04.18.06,0,0,.03,0,.04,0,.07.02.14.03.22.04.07,0,.14.02.21.02.17,0,.34-.03.5-.08.04,0,.08-.02.12-.04.04-.02.08-.04.12-.05h0c.07-.04.14-.09.21-.14.02,0,.03-.03.04-.04,0,0,.03-.02.04-.03l.04-.04s.07-.07.11-.11c.06-.07.12-.14.17-.22.04-.05.06-.11.09-.17.04-.08.05-.16.07-.25.02-.08.03-.16.03-.25,0-.08,0-.17-.03-.25ZM328.58,143.25c0-.07-.03-.13-.05-.2,0-.04-.03-.09-.05-.13-.02-.05-.04-.11-.07-.15,0-.02-.02-.04-.03-.04-.02-.03-.04-.05-.05-.07,0,0-.02-.03-.03-.04l-.02-.02s0-.02-.02-.03h0s-.06-.08-.1-.12c-.04-.04-.07-.08-.11-.11-.04-.04-.08-.08-.12-.12l-.03-.03h0s0,0,0,0h0s0-.02,0-.02h0s-.02-.03-.03-.04h0c-.06-.05-.12-.11-.2-.16-.02-.02-.04-.03-.05-.04-.04-.03-.06-.04-.1-.07h0s-.02,0-.03-.02c-.04-.03-.08-.06-.12-.09-.03-.02-.06-.04-.09-.05-.02,0-.03-.02-.04-.03-.03-.03-.06-.04-.09-.06-.09-.05-.17-.1-.26-.14-.06-.04-.13-.06-.2-.09h0s-.03-.02-.04-.02c0,0-.02-.02-.04-.03h0s-.05-.03-.09-.04c-.06-.03-.12-.04-.19-.07h-.03s-.02,0-.03,0c0,0,0,0,0,0h0s-.05,0-.08.03h0c-.05,0-.1.03-.14.04h0s0,0,0,0c-.09.04-.19.09-.27.16-.05.04-.11.09-.15.13-.04.04-.09.09-.12.14-.04.04-.07.09-.11.14,0,0,0,0,0,.02-.03.04-.06.09-.08.14,0,0,0,0,0,.02-.02.03-.03.05-.04.09,0,.04-.03.06-.04.1h0s0,.03,0,.04c0,0,0,0,0,.02h0s0,.04,0,.06c-.02.02-.02.04-.02.06h0s0,.03,0,.04c0,.03,0,.05-.02.08v.04s0,.03,0,.04c0,.06,0,.12,0,.19,0,.11,0,.22.03.33.02.11.04.2.08.31h0c.04.11.08.21.13.31.05.1.12.2.19.29.05.07.11.13.16.19.04.05.1.1.15.15,0,0,.02,0,.03.02h0s0,.02.02.02,0,0,0,0c.02,0,.02.02.04.03h0s.04.04.07.05c.05.04.11.08.17.11.04.03.08.04.12.06h0s0,0,.02,0h0s0,.02,0,.02c0,0,.02,0,.02,0,0,0,.03,0,.04,0,.03,0,.04.02.07.03.06.03.12.04.18.06,0,0,.03,0,.04,0,.07.02.14.03.22.04.07,0,.14.02.21.02.17,0,.34-.03.5-.08.04,0,.08-.02.12-.04.04-.02.08-.04.12-.05h0c.07-.04.14-.09.21-.14.02,0,.03-.03.04-.04,0,0,.03-.02.04-.03l.04-.04s.07-.07.11-.11c.06-.07.12-.14.17-.22.04-.05.06-.11.09-.17.04-.08.05-.16.07-.25.02-.08.03-.16.03-.25,0-.08,0-.17-.03-.25ZM328.58,143.25c0-.07-.03-.13-.05-.2,0-.04-.03-.09-.05-.13-.02-.05-.04-.11-.07-.15,0-.02-.02-.04-.03-.04-.02-.03-.04-.05-.05-.07,0,0-.02-.03-.03-.04l-.02-.02s0-.02-.02-.03h0s-.06-.08-.1-.12c-.04-.04-.07-.08-.11-.11-.04-.04-.08-.08-.12-.12l-.03-.03h0s0,0,0,0h0s0-.02,0-.02h0s-.02-.03-.03-.04h0c-.06-.05-.12-.11-.2-.16-.02-.02-.04-.03-.05-.04-.04-.03-.06-.04-.1-.07h0s-.02,0-.03-.02c-.04-.03-.08-.06-.12-.09-.03-.02-.06-.04-.09-.05-.02,0-.03-.02-.04-.03-.03-.03-.06-.04-.09-.06-.09-.05-.17-.1-.26-.14-.06-.04-.13-.06-.2-.09h0s-.03-.02-.04-.02c0,0-.02-.02-.04-.03h0s-.05-.03-.09-.04c-.06-.03-.12-.04-.19-.07h-.03s-.02,0-.03,0c0,0,0,0,0,0h0s-.05,0-.08.03h0c-.05,0-.1.03-.14.04h0s0,0,0,0c-.09.04-.19.09-.27.16-.05.04-.11.09-.15.13-.04.04-.09.09-.12.14-.04.04-.07.09-.11.14,0,0,0,0,0,.02-.03.04-.06.09-.08.14,0,0,0,0,0,.02-.02.03-.03.05-.04.09,0,.04-.03.06-.04.1h0s0,.03,0,.04c0,0,0,0,0,.02h0s0,.04,0,.06c-.02.02-.02.04-.02.06h0s0,.03,0,.04c0,.03,0,.05-.02.08v.04s0,.03,0,.04c0,.06,0,.12,0,.19,0,.11,0,.22.03.33.02.11.04.2.08.31h0c.04.11.08.21.13.31.05.1.12.2.19.29.05.07.11.13.16.19.04.05.1.1.15.15,0,0,.02,0,.03.02h0s0,.02.02.02,0,0,0,0c.02,0,.02.02.04.03h0s.04.04.07.05c.05.04.11.08.17.11.04.03.08.04.12.06h0s0,0,.02,0h0s0,.02,0,.02c0,0,.02,0,.02,0,0,0,.03,0,.04,0,.03,0,.04.02.07.03.06.03.12.04.18.06,0,0,.03,0,.04,0,.07.02.14.03.22.04.07,0,.14.02.21.02.17,0,.34-.03.5-.08.04,0,.08-.02.12-.04.04-.02.08-.04.12-.05h0c.07-.04.14-.09.21-.14.02,0,.03-.03.04-.04,0,0,.03-.02.04-.03l.04-.04s.07-.07.11-.11c.06-.07.12-.14.17-.22.04-.05.06-.11.09-.17.04-.08.05-.16.07-.25.02-.08.03-.16.03-.25,0-.08,0-.17-.03-.25ZM328.58,143.25c0-.07-.03-.13-.05-.2,0-.04-.03-.09-.05-.13-.02-.05-.04-.11-.07-.15,0-.02-.02-.04-.03-.04-.02-.03-.04-.05-.05-.07,0,0-.02-.03-.03-.04l-.02-.02s0-.02-.02-.03h0s-.06-.08-.1-.12c-.04-.04-.07-.08-.11-.11-.04-.04-.08-.08-.12-.12l-.03-.03h0s0,0,0,0h0s0-.02,0-.02h0s-.02-.03-.03-.04h0c-.06-.05-.12-.11-.2-.16-.02-.02-.04-.03-.05-.04-.04-.03-.06-.04-.1-.07h0s-.02,0-.03-.02c-.04-.03-.08-.06-.12-.09-.03-.02-.06-.04-.09-.05-.02,0-.03-.02-.04-.03-.03-.03-.06-.04-.09-.06-.09-.05-.17-.1-.26-.14-.06-.04-.13-.06-.2-.09h0s-.03-.02-.04-.02c0,0-.02-.02-.04-.03h0s-.05-.03-.09-.04c-.06-.03-.12-.04-.19-.07h-.03s-.02,0-.03,0c0,0,0,0,0,0h0s-.05,0-.08.03h0c-.05,0-.1.03-.14.04h0s0,0,0,0c-.09.04-.19.09-.27.16-.05.04-.11.09-.15.13-.04.04-.09.09-.12.14-.04.04-.07.09-.11.14,0,0,0,0,0,.02-.03.04-.06.09-.08.14,0,0,0,0,0,.02-.02.03-.03.05-.04.09,0,.04-.03.06-.04.1h0s0,.03,0,.04c0,0,0,0,0,.02h0s0,.04,0,.06c-.02.02-.02.04-.02.06h0s0,.03,0,.04c0,.03,0,.05-.02.08v.04s0,.03,0,.04c0,.06,0,.12,0,.19,0,.11,0,.22.03.33.02.11.04.2.08.31h0c.04.11.08.21.13.31.05.1.12.2.19.29.05.07.11.13.16.19.04.05.1.1.15.15,0,0,.02,0,.03.02h0s0,.02.02.02,0,0,0,0c.02,0,.02.02.04.03h0s.04.04.07.05c.05.04.11.08.17.11.04.03.08.04.12.06h0s0,0,.02,0h0s0,.02,0,.02c0,0,.02,0,.02,0,0,0,.03,0,.04,0,.03,0,.04.02.07.03.06.03.12.04.18.06,0,0,.03,0,.04,0,.07.02.14.03.22.04.07,0,.14.02.21.02.17,0,.34-.03.5-.08.04,0,.08-.02.12-.04.04-.02.08-.04.12-.05h0c.07-.04.14-.09.21-.14.02,0,.03-.03.04-.04,0,0,.03-.02.04-.03l.04-.04s.07-.07.11-.11c.06-.07.12-.14.17-.22.04-.05.06-.11.09-.17.04-.08.05-.16.07-.25.02-.08.03-.16.03-.25,0-.08,0-.17-.03-.25Z"/><ellipse class="cls-10" cx="312.91" cy="137.69" rx="3.14" ry="2.87" transform="translate(-11.96 244.14) rotate(-41.89)"/><path class="cls-27" d="M329.33,140.94c.09.66.05.88.06,1.06.16,2.54-.55,3.93-1.06,4.78-.42.69-3.78,2.71-6.79,1.27-.82-.39-1.38-.94-1.71-1.33-.71-.91-1.07-1.73-1.27-2.29-.24-.68-.37-1.34-.49-1.99-.14-.72-.2-1.29-.21-1.38-.16-1.6,1.92-6.73,5.86-6.73,3.1,0,5.15,3.06,5.62,6.61Z"/><path class="cls-30" d="M328.78,141.69c-.41.74-.8,1.08-1.67,1.34-.99.3-1.77-.37-2.06-1.26-.25-.77-.05-1.68.9-2.31,1.32.65,1.59.75,2.82,2.23Z"/><path class="cls-31" d="M325.95,139.48c-.44,1.74-.16,2.35,1.03,2.65.9.07,1.15-.57,1.73-.52.02,0,.04.02.05.04.91,2.03.41,4.97-1.82,6.12-2.29,1.17-4.89.56-6.38-1.57-1.18-1.68-.93-3.77.14-5.26,1.27-1.76,3.32-1.96,5.25-1.45Z"/></g><g id="Calque_4" data-name="Calque 4"><path class="cls-34" d="M419.65,451.25s-1.82-12.44-7.75-16.76c-4.7-3.43-14.77-8.36-14.86-8.38-8.87-2.34-11.02-2.47-21.33,1.52-4.8,1.86-10.5,4.78-12.55,8.83-.35.7-3.45,6-3.71,6.66-4.46,11.28-.29,12.57.83,16.83,0,.01,7.56,8.69,7.56,8.7,0,.02.38,2.67,8.89,3.68,0,0,6.73.63,6.73.63,1.45-.36,8.98-2.38,12.83-9.65.07-.13.12-.23.14-.26,1.77-3.5,3.41-10.25-.33-15.11-2.7-3.51-7.51-5.12-12.34-4.42-4.97,3.2-9.28,11.09,6.55,1.95.45-.26,2.98.88,5.22,5.01.44,1.71.71,2.37.52,4.25-.07.66-.16,1.42-.36,2.04-1.09,3.36-3.93,8.45-6.88,9.17-12.92,3.11-21.9-6.7-22.48-9.87-.61-3.36-.69-9.48,2.11-13.78,4.13-6.34,12.07-10.68,19.97-10.05.8.06,3.85.23,7.44,1.71,6.6,2.73,9.96,7.73,10.96,9.27,2.39,3.67,3.24,7.14,3.77,9.31.56,2.31.66,3.82.69,4.44.13,2.69-.3,4.76-.63,6.35-.29,1.38-.79,3.23-1.65,5.33-.19.57-3.79,6.95-3.81,6.98-2.28,3.46-14.92,18.49-37.69,25.98-19.3,6.35-43.68,7.11-43.68,7.11-7.06.16-14.6,0-22.56-.64-24.09-1.93-44.61-7.58-60.76-13.65-.02,0-8.64-4.2-8.74-4.25-.67-.34-21.46-10.8-36.47-23.56-10.68-9.08-9.27-8.51-20.38-20.25-7.91-8.36-20.83-18.92-30.41-45.9-.04-.11-8.11-23.76-8.13-23.87-.72-3.2-2.04-8.91-2.42-12.03-.08-.66-.16-4.75-.28-5.45-.04-.24-3.3-30.2,0-45.95-1.87-6.02-3-9.03-4.19-18.33-.38-2.94-.74-7.53-.86-11.9-.18-6.98-.23-13.04,1.4-21.89,1.4-7.6,3.51-17.53,6.73-29.21.6-1.61,5.9-13.83,6.54-15.48,1.1-2.81,4.25-7,4.25-7,1.15-1.99,6.72-10.09,7.11-10.79l8.63-9.65c2.33-2.63,16.95-14.14,18.29-15.62,1.54-1.7,8.95-6.25,14.48-9.3,5.27-2.54,9.27-3.87,11.75-4.76,5.01-1.8,7.8-2.5,12.95-3.68,2.34-.54,6.29-1.09,8.76-1.14,0,0,17.33-.11,24.44,2.79,1.91.78,16.76,8.27,21.4,13.48.13.14-6.6-16.14-6.6-16.14-2.16-4.57-.61-20.77,4.13-19.29,3.24,1.02,5.2.6,8.44.43,3.13-.17,7.4-.41,13.46-3.41,4.46-2.21,5.08-2.22,9.4-4.16,7.94-3.56,9.84-5.27,9.84-5.37,0-.06-5.59.52-8.06-2.33-2.26-1.9-1.66-1.53-5.08-3.56-.04-.02-9.12-5.7-9.14-5.71-6.1-3.3-5.02-2.11-16.44-6.43-.24-.09-4.38-1.02-6.44-1.17-4.35-.33-11.14-1.75-13.43,2-.99,1.63.25,7.75.76,8.44,4.19,20.65-3.81,24.46-3.81,24.46-5,2.9-8.92,2.19-10.57,2.24,0,0-15.33-1.71-33.75,3.11-10.96,2.87-16.67,5.39-27.27,11.85-22.26,13.54-33.65,31.06-40.69,41.99-3.05,4.73-5.91,9.66-7.42,12.53h0s-.04.08-.04.08l-1.5,2.34c-2.21,4.63-3.36,6.79-5.17,11.59-8.76,23.24-11.92,40.42-13.17,50.08-.29,2.27-.52,4.46-.52,4.46-4.31,30.51,4.98,73.97,5.75,76.83,6.22,22.92,12.76,62.67,63.81,114.29,10.67,10.67,33.14,26.17,41.52,29.71,8.17,3.45,18.44,8.31,31.05,12,18.86,5.33,29.57,6.38,47.45,7.36,25.86,1.41,34.48-.64,48.36-3.5,7.62-1.57,30.99-9.19,31.01-9.2,16.89-7.62,31.07-20.84,36.67-35.88.04-.11.73-2.44.76-2.54,2.3-5.84,2.15-10.42,1.02-16.51Z"/><path class="cls-1" d="M420.6,438.32c-1.02-1.97-2.17-3.74-3.4-5.33-1.01-1.3-2.06-2.49-3.14-3.55-1.71-1.71-3.49-3.13-5.2-4.32-1.23-.86-2.44-1.59-3.57-2.21-2.72-1.49-5.02-2.36-6.31-2.79h-.01c-.37-.13-.65-.21-.84-.27-.26-.08-1.5-.43-3.43-.76-5.57-.96-16.94-1.73-27.23,4.81-.97.61-1.93,1.29-2.87,2.04-1.97,1.58-10.26,8.17-12,19.62-.38,2.47-1.28,8.99,2.13,15.69,2.34,4.61,5.75,7.4,7.33,8.67,3.66,2.93,7.06,4.22,7.81,4.5,7.26,2.67,13.94,1.29,16.95.45,1.69-.46,4.38-1.44,6.98-3.62,6.21-5.18,6.57-12.82,6.6-13.88.07-1.96.13-5.19-1.84-8.56-.39-.67-2.84-4.72-7.9-6.29-4.34-1.34-11.41-1.12-14.48,3.81-2.17,3.48-1.94,8.67.76,11.52,2.3,2.42,5.99,2.74,6.29,2.19.34-.64-3.06-4.35-3.2-4.75,0-.02-.04-.11-.06-.11-.06,0-.03.54.06.11,0-.06.63-1.32.62-1.37h0c-.16-.5-.64-2.2.19-3.88,1.28-2.58,4.52-2.77,4.71-2.78,4.84-.2,7.84,6.33,8,6.67.1.22.34.8.57,1.61.47,1.66.63,4.59-.7,6.94-.96,1.7-4.85,4.54-6.77,5.29-2.79,1.09-5.62,1.37-8.34.98h0s-.01.01-.02,0c-13.24-.89-20.74-15.03-15.36-27.54,0-.02,1.99-8.63,12.98-13.3,7.97-3.38,16.89-2.9,24.44.41.08.03.17.07.26.11,4.64,1.88,8.85,4.93,12.07,9.13,7.71,10.03,8.09,21.21,4.04,31.38-.03.1-.07.2-.11.31-5.65,15.04-21.57,27.18-36.98,34.75l-.06.03s-.07.03-.11.05c-.02.01-.03.01-.05.02-.04.02-.09.04-.13.06-3.48,1.56-6.93,2.88-10.29,4.06-13.5,4.71-26.22,7.21-36.99,8.5-.15.02-.3.03-.45.05-11.62,1.36-20.92,1.32-26.37,1.16-26.54-.77-49.39-6.84-66.89-13.54-.04-.02-.09-.03-.13-.05-.08-.03-.15-.06-.23-.09-1.41-.54-2.79-1.09-4.13-1.64-.91-.38-1.81-.75-2.69-1.13-.48-.2-.96-.41-1.43-.61-.87-.39-1.72-.76-2.55-1.14-.43-.19-.85-.38-1.27-.58-1.68-.77-3.29-1.53-4.82-2.28-.75-.37-1.49-.73-2.2-1.1-.36-.18-.72-.36-1.07-.54-7.66-3.94-12.94-7.29-15.45-8.92-10.3-6.69-37.77-25.91-60-61.33-13.4-21.35-20.66-41.83-24.84-58.78-3.08-12.52-4.49-23.12-5.45-30.75-.59-4.64-3.08-26.86-3.19-34.82,0-.59-.02-1.19,0-1.79-.07-8.21.25-16.44,1.04-24.67.49-5.36,1.19-10.72,2.08-16.09.09-.55.19-1.1.29-1.66.4-2.31.84-4.61,1.33-6.92,1.1-5.23,2.42-10.43,3.95-15.57.44-1.48.9-2.96,1.37-4.43.34-1.05.69-2.09,1.06-3.14.5-1.46,1.02-2.91,1.56-4.36.41-1.12.84-2.23,1.28-3.34.69-1.74,1.41-3.47,2.15-5.19,1.28-2.96,2.65-5.86,4.1-8.74h0c.34-.7.69-1.38,1.05-2.07.47-.9.95-1.79,1.43-2.68h0c1.44-2.65,2.96-5.23,4.54-7.77.91-1.45,1.84-2.88,2.79-4.3,1.04-1.54,2.11-3.05,3.2-4.55,8.3-11.32,18.26-21.38,30.02-29.53,14.08-9.77,27.23-15.78,43.63-18.43.03-.06,4.25-.67,4.32-.67,3.68-.38,6.92-.53,7.78-.44,3.05.29,6.07.03,8.98.29,1.99.18,3.52.25,4.98.32,2.58.12,3.88.18,5.49.13,5.73-.2,6.89-1.43,7.27-1.9.25-.31.57-1.78-.06-2.1-3.44-1.72-2.38-1.52-17.76-5.52l-.1-.03c-1.4-.62-3.86-2.04-8.59-3.44-.63-.18-1.23.37-1.09,1.01.13.59.25,1.14.23,1.15-.1.03.11,1.02-.22,2.19-.06.21-.3.32-.51.26-3.85-1.25-3.72-2.26-13.93-3.4,0,0,0,0,0,0,0,0-2.13-.1-2.13-.1-.03-.02-.44.32-.63.63-.17.27.56,1.31,1.21,3.08.24.65.18,1.21.11,1.51-.03.13-.15.21-.29.19-.35-.05-1.06-.17-1.63-.24-5.18-.63-15.52-.3-16.38.84-.11.14.34,3.23,1,4.08.05.06,0,.16-.07.16-.83.06-1.96.15-3.31.26-2.04.16-2.4.2-2.76.23-1.82.2-3.17.49-4.41.76-3.28.72-6.27,1.67-8.16,2.32-.12.07-.18.15-.22.22-.21.4.13,1.1.86,1.75.4.42.71.79.95,1.08.3.36.41.52.48.76.11.4,0,.77-.1.98l-2.85.48s0,0-.01,0c-4.12,1.2-4.33,1.03-8.42,2.65l-2.32.83c-2.2.8-6.34,2.13-5.49,4.35.31.82,2.76,1.84,1.68,2.6-4.62,3.26-10.62,5.57-15.65,9.57-.04.03-.05.08-.04.13.71,2,2.7,2.73,2.67,3.59,0,.03-.01.06-.03.08-1.5,1.76-7.51,4.84-7.53,4.86-1.33,1.08-3.69,2.17-5.11,3.43-.1.08-1.56,1.93-1.49,2.03.21.3,3.21,2.5,2.83,2.73-1.38.83-11.45,11.8-11.35,11.94.68.93,3.3.35,3.66,1.2.02.04,0,.09-.03.12-1.88,1.76-3.58,3.52-5.78,5.47,0,0,0,0,0,0-.06.03-2.23,1.88-3.63,3.55-.04.04-.04.1,0,.14.37.37,2.4,2.04,2.66,3.3,0,.04,0,.07-.03.1-1.4,1.23-5.16,5.94-6.64,7.82-.38.48-.44,1.13-.16,1.68.47.93.96,1.92,1.06,2.11.01.02.02.04,0,.07-.41,1.67-3.08,10.37-3.1,10.44,0,0,0,0,0,0-2.09,5.31-2.4,6.01-6.09,20.5-1.57,6.15-4.63,27.53-5.22,41.14,0,.13-.02.25-.02.38-.32,12.55.22,25.03,1.6,37.4.03.31.06.61.11.9,1.64,14.4,4.41,28.66,8.24,42.74,1.84,6.75,3.91,12.69,6.33,19.25,16.14,43.75,46.58,73.74,50.37,77.47,17.29,16.99,33.08,26.63,38.02,29.54,11.88,7.02,22.72,11.67,31.13,14.76,9.07,3.35,21.07,7.26,35.56,9.9,9.19,1.67,25.05,4.57,45.84,3.94,10.64-.32,26.13-.9,45.21-6.86,16.31-5.09,27.3-11.64,32.48-14.98,0,0,16.4-10.78,23.49-22.35,1.94-3.17,3.3-6.22,3.3-6.22,3.81-8.56,5.08-18.67,2.54-26.29-1.03-3.1-2.03-5.5-2.79-7.16-.58-1.27-1.05-2.16-1.37-2.79Z"/><path class="cls-21" d="M199.8,286.31c-.33.1-.69.01-1.02-.09-1.1-.35-3.66-1.16-3.7-1.18-2.79-1.08-8.11-.56-11.97-.01-.05,0-.11.02-.16.03l-6.89,1.43c-.08.01-.17.03-.25.04l-6.11.61c-2.31.08-6.67-1.91-7.52-5.48-.63-2.6-11.9,25.38-12.89,29.59-1.63,6.99-5.33,22.48-4.7,48,.25,10.29,7.35,34.92,8.16,37.24.27.78,3.56,8.92,3.9,9.62,10.8,21.71,17.1,29.59,19.7,32.5.14.16.52.58,1.28,1.4,10.52,11.36,21.9,23.65,37.75,34.39,20.17,13.67,39.49,19.34,50,22.34,5.7,1.63,10.17,2.65,12.19,3.05,30.48,5.97,50.1,4.92,60.44,2.67,15.87-3.46,33.55-5.49,50.92-18.76,5.65-4.32,16.6-12.89,16.48-26.57-.02-2.65.38-8.29-4.22-13.68-4.83-5.67-13.27-8.19-19.78-6.42-4.25,1.16-9.62,4.78-11.08,10.22-.29,1.07-.36,2-.38,2.67-.2,1.58-.45,5.44,1.9,8.76,4.14,5.83,12.24,7.13,16.79,5.17.68-.29,1.99-.87,2.88-2.25,1.58-2.44.59-5.42.37-6.02-1.08-3.27-3.69-5.17-6-4.86-1.76.24-3.61,1.81-3.43,3.05.26,1.84,4.84,1.68,5.14,3.52.23,1.36-1.97,3.2-4.19,3.52-2.2.32-4.4-.83-5.43-2.48-1.86-2.96.09-7.47,2.87-9.66,3.39-2.67,8.9-2.72,11.81.29,3.83,3.97,5.37,12.6-1.56,17.59-7.24,5.21-20.52-.19-24-7.14s-1.52-16.38,4.32-21.4c5.92-5.09,13.72-7.94,21.75-5.61,7.39,2.14,12.08,6.63,13.63,8.8,8.26,11.58,5.1,22.19,2.35,28.96-.03.08-.07.15-.1.23,0,0-1.52,3.26-4.03,6.61-4.95,6.6-6.41,8.01-10.84,11.73-9.34,7.84-20.65,11.55-27.32,13.75,0,0-14.91,4.9-35.97,6.47-1.56.12-3.17.21-3.17.21-2.34.14-8.21.47-14.96.31-5.02-.12-8.85-.5-16.51-1.27-4.35-.44-7.46-.75-11.81-1.4-3.27-.49-7.78-1.25-13.08-2.41-3.18-.7-9.02-2.07-16.63-4.44-11.38-3.55-26.05-8.24-41.81-18.74h0c-72.59-46.24-78.09-108.51-78.09-108.51-2.14-9.08-2.42-16.08-2.92-26.79-.41-8.84-.38-28.06,1.69-32.87.01-.03.19-.52.5-1.39,10.23-28.66,16.58-37.93,17.37-39.3.01-.02.16-.49.75-2,.09-.22.21-.53.22-.59.83-3,0,.84,2.85-11.5.02-.12.04-.24.06-.36.84-7.91.03-11.84,4.67-3.58.09.15.16.31.21.48.26.88,1.15,3.87,1.58,5.59.81,3.23,1.75,9.23,1.98,10.71.03.23.1.45.2.65l3.68,7.86c.46.98,1.49,1.53,2.56,1.37,2.93-.45,8.48-1.43,9.52-1.78.18-.06,10.17-1.42,12.68-1.05.34.05.67.02.99.13,2.83,1,11.62,4.13,12.52,5.07,1.31,1.38-2.62,1.9-6.14,2.98Z"/></g></svg>